<svg xmlns="http://www.w3.org/2000/svg" width="234.61" height="73.703" viewBox="0 0 234.61 73.703">
  <g id="Group_64" data-name="Group 64" transform="translate(-1433.858 -2018.612)">
    <rect id="Rectangle_72" data-name="Rectangle 72" width="234.61" height="73.703" rx="14.75" transform="translate(1433.858 2018.612)" fill="#34358f"/>
    <circle id="Ellipse_6" data-name="Ellipse 6" cx="22.505" cy="22.505" r="22.505" transform="translate(1450.455 2032.958)" fill="#040025"/>
    <path id="Path_210" data-name="Path 210" d="M4.212,0H7.326V-12.006H2.5V-9.36h1.71ZM14.634-9.486a1.465,1.465,0,0,1,.954.378,4.975,4.975,0,0,1,1.044,3.15,4.777,4.777,0,0,1-1.044,3.114,1.465,1.465,0,0,1-.954.378,1.465,1.465,0,0,1-.954-.378,4.836,4.836,0,0,1-1.044-3.132A4.717,4.717,0,0,1,13.68-9.108,1.465,1.465,0,0,1,14.634-9.486Zm5.094,3.492a6.821,6.821,0,0,0-1.782-4.914,4.737,4.737,0,0,0-3.312-1.368,4.737,4.737,0,0,0-3.312,1.368A6.821,6.821,0,0,0,9.54-5.994a6.806,6.806,0,0,0,1.782,4.9A4.737,4.737,0,0,0,14.634.27,4.737,4.737,0,0,0,17.946-1.1,6.806,6.806,0,0,0,19.728-5.994Zm5.706-3.492a1.465,1.465,0,0,1,.954.378,4.975,4.975,0,0,1,1.044,3.15,4.777,4.777,0,0,1-1.044,3.114,1.465,1.465,0,0,1-.954.378,1.465,1.465,0,0,1-.954-.378,4.836,4.836,0,0,1-1.044-3.132A4.717,4.717,0,0,1,24.48-9.108,1.465,1.465,0,0,1,25.434-9.486Zm5.094,3.492a6.821,6.821,0,0,0-1.782-4.914,4.737,4.737,0,0,0-3.312-1.368,4.737,4.737,0,0,0-3.312,1.368A6.821,6.821,0,0,0,20.34-5.994a6.806,6.806,0,0,0,1.782,4.9A4.737,4.737,0,0,0,25.434.27,4.737,4.737,0,0,0,28.746-1.1,6.806,6.806,0,0,0,30.528-5.994Zm5.706-3.492a1.465,1.465,0,0,1,.954.378,4.975,4.975,0,0,1,1.044,3.15,4.777,4.777,0,0,1-1.044,3.114,1.465,1.465,0,0,1-.954.378,1.465,1.465,0,0,1-.954-.378,4.836,4.836,0,0,1-1.044-3.132A4.717,4.717,0,0,1,35.28-9.108,1.465,1.465,0,0,1,36.234-9.486Zm5.094,3.492a6.821,6.821,0,0,0-1.782-4.914,4.737,4.737,0,0,0-3.312-1.368,4.737,4.737,0,0,0-3.312,1.368A6.821,6.821,0,0,0,31.14-5.994a6.806,6.806,0,0,0,1.782,4.9A4.737,4.737,0,0,0,36.234.27,4.737,4.737,0,0,0,39.546-1.1,6.806,6.806,0,0,0,41.328-5.994Zm.9.954h2.736v2.754H47.3V-5.04H50.04V-7.2H47.3V-9.954h-2.34V-7.2H42.228Z" transform="translate(1514.593 2050.402)" fill="#fff"/>
    <path id="Path_209" data-name="Path 209" d="M8.306-10.762A3.783,3.783,0,0,0,7.088-12.15a3.388,3.388,0,0,0-2.006-.563A3.231,3.231,0,0,0,1.575-9.488a2.6,2.6,0,0,0,.863,2.044A5.536,5.536,0,0,0,4.106-6.413l1.125.525a5.457,5.457,0,0,1,1.5.863A1.866,1.866,0,0,1,7.35-3.563,2.367,2.367,0,0,1,4.838-1.088a2.39,2.39,0,0,1-1.8-.694,2.951,2.951,0,0,1-.75-1.594L.938-3A4.533,4.533,0,0,0,2.1-.788,3.73,3.73,0,0,0,4.819.225,3.752,3.752,0,0,0,8.775-3.619a3.01,3.01,0,0,0-.9-2.269A6.075,6.075,0,0,0,5.944-7.069l-1.2-.525a4.084,4.084,0,0,1-1.313-.787,1.311,1.311,0,0,1-.469-1.087,1.919,1.919,0,0,1,2.1-1.931,2.25,2.25,0,0,1,1.406.431,3.013,3.013,0,0,1,.731.938ZM16.95-6.675a3.219,3.219,0,0,0-2.663-1.294A3.74,3.74,0,0,0,10.5-3.9,3.767,3.767,0,0,0,14.288.225,3.282,3.282,0,0,0,16.95-1.088V0H18.3V-7.781H16.95Zm-2.513-.094a2.636,2.636,0,0,1,2.588,2.888A2.661,2.661,0,0,1,14.438-.975c-1.612,0-2.55-1.256-2.55-2.925A2.586,2.586,0,0,1,14.438-6.769Zm9.15.225V-7.781h-1.35v-2.812h-1.35v2.812h-.825v1.238h.825V0h1.35V-6.544Zm1.275-1.238V0h1.35V-7.781Zm-.281-2.944a.96.96,0,0,0,.956.956.96.96,0,0,0,.956-.956.96.96,0,0,0-.956-.956A.96.96,0,0,0,24.581-10.725Zm8.494,4.162a2.244,2.244,0,0,0-2.137-1.406,2.092,2.092,0,0,0-2.269,2.175,1.69,1.69,0,0,0,.356,1.144,5.076,5.076,0,0,0,1.894,1.144c.731.319,1.256.563,1.256,1.294A1.208,1.208,0,0,1,30.9-.975,1.761,1.761,0,0,1,29.325-2.25l-1.163.487A2.783,2.783,0,0,0,30.881.225a2.475,2.475,0,0,0,2.681-2.55,1.842,1.842,0,0,0-.412-1.256,4.731,4.731,0,0,0-1.95-1.2c-.881-.375-1.256-.544-1.256-1.106a.86.86,0,0,1,.938-.881,1.193,1.193,0,0,1,1.087.788Zm5.588.019V-7.781H36.75v-2.925a2.151,2.151,0,0,1,.263-1.219,1.566,1.566,0,0,1,1.406-.6,1.566,1.566,0,0,1,1.406.6,2.358,2.358,0,0,1,.263,1.219v.319h1.35v-.319a3.7,3.7,0,0,0-.45-2.044,2.943,2.943,0,0,0-2.569-1.144A2.9,2.9,0,0,0,35.85-12.75a3.349,3.349,0,0,0-.45,2.044v2.925h-.75v1.238h.75V0h1.35V-6.544Zm1.425-1.238V0h1.35V-7.781Zm9.675,5.175a3.1,3.1,0,0,1-.806,1.069,2.366,2.366,0,0,1-1.594.563,2.492,2.492,0,0,1-2.475-2.644h6.056a5.224,5.224,0,0,0-.731-2.925,3.481,3.481,0,0,0-2.944-1.425c-2.344,0-3.769,1.8-3.769,4.125A3.724,3.724,0,0,0,47.344.225a3.777,3.777,0,0,0,2.588-.956,4.655,4.655,0,0,0,.956-1.256ZM44.981-4.744a2.365,2.365,0,0,1,2.288-2.025,2.329,2.329,0,0,1,2.287,2.025ZM58.969-6.675a3.219,3.219,0,0,0-2.662-1.294A3.74,3.74,0,0,0,52.519-3.9,3.767,3.767,0,0,0,56.306.225a3.282,3.282,0,0,0,2.662-1.313V0h1.35V-13.669h-1.35Zm-2.513-.094a2.636,2.636,0,0,1,2.588,2.888A2.661,2.661,0,0,1,56.456-.975c-1.612,0-2.55-1.256-2.55-2.925A2.586,2.586,0,0,1,56.456-6.769Zm20.681-4.706a5.894,5.894,0,0,0-3.694-1.237A6.357,6.357,0,0,0,66.9-6.206,6.322,6.322,0,0,0,73.369.225,6.512,6.512,0,0,0,77.138-.994V-2.719a5.688,5.688,0,0,1-1.444,1.05,5.2,5.2,0,0,1-2.325.581,5,5,0,0,1-5.044-5.1A5.045,5.045,0,0,1,73.35-11.4a5.327,5.327,0,0,1,2.156.488A6.164,6.164,0,0,1,77.138-9.75Zm2.213-2.194V0H80.7V-13.669Zm3.9,5.888V0H84.6V-7.781Zm-.281-2.944a.96.96,0,0,0,.956.956.96.96,0,0,0,.956-.956.96.96,0,0,0-.956-.956A.96.96,0,0,0,82.969-10.725Zm9.956,8.119a3.1,3.1,0,0,1-.806,1.069,2.366,2.366,0,0,1-1.594.563A2.492,2.492,0,0,1,88.05-3.619h6.056a5.224,5.224,0,0,0-.731-2.925,3.481,3.481,0,0,0-2.944-1.425c-2.344,0-3.769,1.8-3.769,4.125A3.724,3.724,0,0,0,90.506.225a3.777,3.777,0,0,0,2.588-.956,4.655,4.655,0,0,0,.956-1.256ZM88.144-4.744a2.365,2.365,0,0,1,2.287-2.025,2.329,2.329,0,0,1,2.287,2.025ZM96.169,0h1.35V-4.069a3.278,3.278,0,0,1,.563-2.1,1.7,1.7,0,0,1,1.369-.6,1.527,1.527,0,0,1,1.275.563,2.288,2.288,0,0,1,.356,1.425V0h1.35V-4.819a3.47,3.47,0,0,0-.45-2.081A2.639,2.639,0,0,0,99.75-7.969a2.745,2.745,0,0,0-2.231,1.087v-.9h-1.35Zm11.55-6.544V-7.781h-1.35v-2.812h-1.35v2.812h-.825v1.238h.825V0h1.35V-6.544Zm5.588-.019a2.244,2.244,0,0,0-2.138-1.406A2.092,2.092,0,0,0,108.9-5.794a1.69,1.69,0,0,0,.356,1.144,5.076,5.076,0,0,0,1.894,1.144c.731.319,1.256.563,1.256,1.294a1.208,1.208,0,0,1-1.275,1.238,1.761,1.761,0,0,1-1.575-1.275l-1.162.487A2.783,2.783,0,0,0,111.113.225a2.475,2.475,0,0,0,2.681-2.55,1.842,1.842,0,0,0-.412-1.256,4.731,4.731,0,0,0-1.95-1.2c-.881-.375-1.256-.544-1.256-1.106a.86.86,0,0,1,.938-.881,1.193,1.193,0,0,1,1.087.788Z" transform="translate(1514.593 2073.216)" fill="#fff"/>
    <g id="Group_63" data-name="Group 63" transform="translate(448 -51)">
      <path id="Path_40" data-name="Path 40" d="M1021.457,2100.666c-3.022-.52-5.224-.065-6.544,1.351a5.329,5.329,0,0,0-1.149,2.074,5.629,5.629,0,1,1,3.794,9.785,5.294,5.294,0,0,1-5.01-3.067,9.712,9.712,0,0,1-.589-3.169c-.084-2.036.2-4.735,1.92-6.579a6.94,6.94,0,0,1,5.329-2.011,14.755,14.755,0,0,1,2.488.228.7.7,0,0,1-.239,1.388Z" fill="#fff"/>
      <path id="Path_41" data-name="Path 41" d="M1036.241,2100.666c-3.022-.52-5.224-.065-6.545,1.351a5.354,5.354,0,0,0-1.149,2.074,5.629,5.629,0,1,1,3.8,9.785,5.294,5.294,0,0,1-5.01-3.067,9.709,9.709,0,0,1-.589-3.169c-.084-2.036.2-4.735,1.92-6.579a6.94,6.94,0,0,1,5.329-2.011,14.755,14.755,0,0,1,2.488.228.7.7,0,0,1-.239,1.388Z" fill="#fff"/>
    </g>
  </g>
</svg>
