<?xml version="1.0" encoding="utf-8"?>
<!-- Generator: Adobe Illustrator 22.1.0, SVG Export Plug-In . SVG Version: 6.00 Build 0)  -->
<svg version="1.1" id="Layer_1" xmlns="http://www.w3.org/2000/svg" xmlns:xlink="http://www.w3.org/1999/xlink" x="0px" y="0px"
	 viewBox="0 0 176 176" style="enable-background:new 0 0 176 176;" xml:space="preserve">
<style type="text/css">
	.st0{fill:none;}
	.st1{fill:#162E55;}
</style>
<rect class="st0" width="176" height="176"/>
<g>
	<g>
		<path class="st1" d="M39.5,100.3c-2.2-2.8-3.7-6.8-3.7-12.1c0-14,10.3-18.9,18-18.9c5.5,0,9.2,2.1,11.8,4.7l10-10
			c-6.4-3.5-12.6-7.2-18.9-10.9c-2.4-1.3-4.6-1.3-6.8,0c-3.4,2.1-20.4,11.8-25.4,14.6c-2.1,1.3-3.1,3.1-3.1,5.6c0,9.9,0,19.6,0,29.5
			c0,1.2,0.3,2.2,0.7,3.1c0.4,0.9,1.3,1.8,2.4,2.4c1,0.6,2.5,1.5,4.4,2.5L39.5,100.3z"/>
		<path class="st1" d="M53.9,78.1c-5.8,0-7.1,6.2-7.1,10c0,0.9,0.1,2.5,0.6,4.3L59,80.6C58.1,79.3,56.5,78.1,53.9,78.1z"/>
		<path class="st1" d="M85.6,73.2c0-1.2-0.3-2.2-0.7-3.2c-0.4-0.9-1.3-1.6-2.4-2.2c-1.8-1-3.5-2.1-5.3-3.1L66.9,75.2
			c2.4,3,3.4,6.5,3.4,8.4h-9.9c0,0,0-0.6-0.3-1.3l-11.8,12c1,2.2,2.8,4.1,5.9,4.1c6.6,0,6.4-5.8,6.4-5.8l9.5,0.6
			c0,5-3.1,13.9-15.8,13.9c-4.4,0-9.6-1.5-13.3-5.3l-10.5,9.9c7.1,4.1,17.1,9.9,19.7,11.4c2.2,1.3,4.6,1.3,6.8,0
			c8.6-4.9,17-9.9,25.6-14.8c1-0.6,1.8-1.3,2.4-2.4c0.4-0.9,0.7-1.9,0.7-3.1C85.6,102.8,85.6,83.1,85.6,73.2z"/>
	</g>
	<g>
		<path class="st1" d="M154.1,105.3c0.3-0.7,0.4-1.5,0.4-2.4c0,0,0-19.8,0-29.7c0-0.9-0.1-1.8-0.4-2.5l-30,17.1L154.1,105.3z
			 M145.5,86.8h2.5v-2.5h2.5v2.5h2.5v2.5h-2.5v2.5H148v-2.5h-2.5V86.8z M139,86.8v-2.5h2.5v2.5h2.5v2.5h-2.5v2.5H139v-2.5h-2.5v-2.5
			H139z"/>
		<path class="st1" d="M122.4,77.4c-5.9,0-10.6,4.7-10.6,10.6c0,1.6,0.4,3.1,1,4.6L131.1,82C129.2,79.1,126,77.4,122.4,77.4z"/>
		<path class="st1" d="M122.4,98.6c3.7,0,6.9-1.9,8.9-4.7l-8.7-5l-8.9,5.2C115.5,96.7,118.7,98.6,122.4,98.6z"/>
		<path class="st1" d="M140.5,99.2c-3.7,6.1-10.5,10-18,10c-7.7,0-14.3-4-18-10l-12.9,7.4c0.4,0.6,1.2,1.2,1.9,1.6
			c5,3,22,12.7,25.4,14.6c2.2,1.3,4.6,1.3,6.8,0c8.6-4.9,17.1-9.9,25.6-14.8c0.7-0.4,1.5-1,1.9-1.6L140.5,99.2z"/>
		<path class="st1" d="M103.5,97.9c-1.6-3-2.5-6.4-2.5-9.9c0-11.8,9.6-21.3,21.3-21.3c7.5,0,14.2,4,18,9.9l12.9-7.4
			c-0.4-0.6-1-1-1.8-1.5c-8.6-4.9-17.1-9.9-25.6-14.8c-2.4-1.3-4.6-1.3-6.8,0c-3.4,2.1-20.4,11.8-25.4,14.6
			c-2.1,1.2-3.1,3.1-3.1,5.5c0,9.9,0,19.8,0,29.7c0,0.9,0.1,1.8,0.4,2.5L103.5,97.9z"/>
	</g>
</g>
</svg>
