<?xml version="1.0" encoding="utf-8"?>
<!-- Generator: Adobe Illustrator 22.1.0, SVG Export Plug-In . SVG Version: 6.00 Build 0)  -->
<svg version="1.1" id="Layer_1" xmlns="http://www.w3.org/2000/svg" xmlns:xlink="http://www.w3.org/1999/xlink" x="0px" y="0px"
	 viewBox="0 0 176 176" style="enable-background:new 0 0 176 176;" xml:space="preserve">
<style type="text/css">
	.st0{fill:none;}
	.st1{fill:#162E55;}
</style>
<rect class="st0" width="176" height="176"/>
<g>
	<g transform="translate(26.734177, 116.658228)">
		<path class="st1" d="M118.8-57.3c0-0.3,0-0.4-0.1-0.5s-0.4-0.1-0.8-0.1h-0.5v1.5h0.7C118.5-56.6,118.8-56.9,118.8-57.3L118.8-57.3
			z M119.6-54.4h-0.7l-0.4-0.9c-0.3-0.5-0.5-0.8-0.8-0.8h-0.4v1.7h-0.5v-4.1h1.2c0.5,0,0.9,0.1,1.2,0.4c0.3,0.3,0.4,0.4,0.4,0.8
			c0,0.3-0.1,0.5-0.3,0.7c-0.1,0.3-0.4,0.4-0.8,0.4l0,0c0.3,0,0.4,0.3,0.7,0.8L119.6-54.4L119.6-54.4z M120.9-56.4
			c0-0.8-0.3-1.5-0.8-2s-1.2-0.8-2-0.8s-1.5,0.3-2,0.8s-0.8,1.2-0.8,2s0.3,1.5,0.8,2s1.2,0.8,2,0.8s1.5-0.3,2-0.8
			S120.9-55.6,120.9-56.4L120.9-56.4z M121.3-56.4c0,0.9-0.3,1.7-0.9,2.3c-0.7,0.7-1.3,0.9-2.3,0.9c-0.9,0-1.7-0.3-2.3-0.9
			c-0.7-0.7-0.9-1.3-0.9-2.3c0-0.9,0.3-1.6,0.9-2.3c0.7-0.7,1.3-0.9,2.3-0.9c0.9,0,1.7,0.3,2.3,0.9
			C120.9-58.1,121.3-57.3,121.3-56.4L121.3-56.4z"/>
		<path class="st1" d="M33.2-44.9h-2v-11.4c0-0.9,0-2,0.1-3.3l0,0c-0.1,0.8-0.4,1.3-0.5,1.6l-5.9,13H24l-5.9-12.9
			c-0.1-0.4-0.4-0.9-0.5-1.7l0,0c0,0.7,0.1,1.7,0.1,3.3v11.4h-1.9v-17h2.7l5.2,11.8c0.4,0.9,0.7,1.6,0.8,2h0.1
			c0.4-0.9,0.7-1.6,0.8-2.1L30.7-62h2.5V-44.9L33.2-44.9z"/>
		<path class="st1" d="M39.3-44.9h-1.9V-57h2L39.3-44.9L39.3-44.9z M39.7-61.4c0,0.4-0.1,0.7-0.4,0.9c-0.3,0.3-0.5,0.4-0.9,0.4
			s-0.7-0.1-0.9-0.4C37.2-60.7,37-61,37-61.4s0.1-0.7,0.4-0.9c0.3-0.3,0.5-0.4,0.9-0.4s0.7,0.1,0.9,0.4
			C39.6-62.1,39.7-61.8,39.7-61.4L39.7-61.4z"/>
		<path class="st1" d="M51.4-45.5c-0.9,0.5-2,0.8-3.3,0.8c-1.7,0-3.2-0.5-4.3-1.7c-1.1-1.1-1.6-2.5-1.6-4.4c0-2,0.5-3.6,1.7-4.8
			s2.7-1.9,4.7-1.9c1.1,0,2,0.3,2.8,0.7v2c-0.9-0.7-1.9-0.9-2.9-0.9c-1.2,0-2.3,0.4-3.1,1.3c-0.8,0.9-1.2,2-1.2,3.6
			c0,1.5,0.4,2.5,1.1,3.3c0.8,0.8,1.7,1.2,3.1,1.2c1.1,0,2-0.4,2.9-1.1L51.4-45.5C51.3-45.5,51.4-45.5,51.4-45.5z"/>
		<path class="st1" d="M60.8-55.2c-0.4-0.3-0.8-0.4-1.5-0.4c-0.8,0-1.5,0.4-2,1.1c-0.7,0.8-0.9,1.9-0.9,3.3v6.1h-2v-12h2v2.5l0,0
			c0.3-0.9,0.7-1.6,1.3-2c0.5-0.4,1.2-0.7,1.9-0.7c0.5,0,0.9,0,1.2,0.1V-55.2L60.8-55.2z"/>
		<path class="st1" d="M71.6-51c0-1.6-0.4-2.8-1.1-3.6c-0.7-0.7-1.6-1.1-2.8-1.1c-1.2,0-2.1,0.4-2.9,1.2c-0.8,0.8-1.2,2-1.2,3.6
			c0,1.5,0.4,2.5,1.1,3.5c0.7,0.8,1.7,1.2,2.9,1.2c1.3,0,2.3-0.4,2.9-1.2C71.3-48.4,71.6-49.4,71.6-51 M73.6-51c0,2-0.5,3.5-1.6,4.6
			c-1.1,1.2-2.5,1.7-4.4,1.7s-3.3-0.5-4.4-1.7c-1.1-1.1-1.6-2.7-1.6-4.5c0-2.1,0.5-3.7,1.7-4.9c1.1-1.1,2.5-1.6,4.4-1.6
			s3.2,0.5,4.3,1.7C73-54.6,73.6-53,73.6-51"/>
		<path class="st1" d="M83.2-48.2c0,0.9-0.4,1.9-1.1,2.5c-0.8,0.7-1.9,1.1-3.3,1.1c-1.2,0-2.1-0.3-3.1-0.7v-2.1
			c0.9,0.8,2,1.2,3.2,1.2c1.6,0,2.3-0.5,2.3-1.7c0-0.5-0.1-0.9-0.5-1.2s-1.1-0.7-2-1.1c-1.1-0.4-1.7-0.9-2.1-1.3
			c-0.5-0.5-0.8-1.3-0.8-2.1c0-1.1,0.4-1.9,1.2-2.5c0.8-0.7,1.9-1.1,3.1-1.1c0.9,0,1.9,0.1,2.5,0.5v2c-0.7-0.7-1.6-0.9-2.5-0.9
			c-0.7,0-1.2,0.1-1.6,0.5c-0.4,0.3-0.5,0.7-0.5,1.2s0.1,0.9,0.5,1.2c0.3,0.3,0.9,0.7,1.9,1.1c1.1,0.4,1.7,0.9,2.3,1.3
			C82.9-49.8,83.2-49,83.2-48.2"/>
		<path class="st1" d="M95.2-51c0-1.6-0.4-2.8-1.1-3.6s-1.6-1.2-2.8-1.2c-1.2,0-2.1,0.4-2.9,1.2s-1.2,2-1.2,3.6
			c0,1.5,0.4,2.5,1.1,3.5c0.8,0.8,1.7,1.2,2.9,1.2c1.3,0,2.3-0.4,2.9-1.2C94.8-48.4,95.2-49.4,95.2-51 M97.2-51c0,2-0.5,3.5-1.6,4.6
			c-1.1,1.2-2.5,1.7-4.4,1.7s-3.3-0.5-4.4-1.7c-1.1-1.1-1.6-2.7-1.6-4.5c0-2.1,0.5-3.7,1.7-4.9c1.1-1.1,2.5-1.6,4.4-1.6
			s3.2,0.5,4.3,1.7C96.6-54.6,97.2-53,97.2-51"/>
		<path class="st1" d="M105.7-61.1c-0.4-0.3-0.8-0.3-1.3-0.3c-1.3,0-2,0.8-2,2.5v1.9h2.8v1.6h-2.8v10.5h-2v-10.5h-2.1V-57h2.1v-2
			c0-1.3,0.4-2.4,1.2-3.2c0.7-0.7,1.6-0.9,2.7-0.9c0.7,0,1.1,0.1,1.5,0.3L105.7-61.1L105.7-61.1z"/>
		<path class="st1" d="M113.4-45.1c-0.4,0.3-1.1,0.4-1.9,0.4c-2.1,0-3.2-1.2-3.2-3.6v-7.2h-2.1V-57h2.1v-2.9c0.7-0.1,1.3-0.4,2-0.7
			v3.6h3.1v1.6h-3.1v6.8c0,0.8,0.1,1.3,0.4,1.7s0.8,0.5,1.3,0.5s0.9-0.1,1.2-0.4v1.7C113.2-45.1,113.4-45.1,113.4-45.1z"/>
	</g>
	<g transform="translate(0.000000, 160.405063)">
		<path class="st1" d="M34.9-41.5c0,0.9-0.4,1.7-1.1,2.5c-0.7,0.7-1.5,1.1-2.5,1.1c-0.9,0-1.7-0.4-2.4-1.1c-0.7-0.8-0.9-1.6-0.9-2.5
			s0.3-1.9,0.9-2.5c0.7-0.7,1.5-1.1,2.4-1.1c0.9,0,1.9,0.4,2.5,1.1C34.5-43.2,34.9-42.4,34.9-41.5"/>
		<path class="st1" d="M78.5-38.7h-6.4l-23-35.4c-0.5-0.8-1.1-1.7-1.3-2.8h-0.1C47.8-76,48-74,48-70.8v32.1h-5.2v-44.5h6.7
			l22.4,34.9c0.9,1.3,1.5,2.4,1.9,2.9h0.1c-0.3-1.3-0.3-3.5-0.3-6.5v-31.3h5.2L78.5-38.7L78.5-38.7z"/>
		<path class="st1" d="M112-38.7H88.4v-44.5h22.7v4.6H93.7v14.7h16.1v4.6H93.6v15.5H112V-38.7L112-38.7z"/>
		<path class="st1" d="M147.8-78.4H135v39.7h-5.2v-39.7h-12.9V-83h30.9V-78.4L147.8-78.4z"/>
	</g>
</g>
</svg>
