<?xml version="1.0" encoding="utf-8"?>
<!-- Generator: Adobe Illustrator 22.1.0, SVG Export Plug-In . SVG Version: 6.00 Build 0)  -->
<svg version="1.1" id="Layer_1" xmlns="http://www.w3.org/2000/svg" xmlns:xlink="http://www.w3.org/1999/xlink" x="0px" y="0px"
	 viewBox="0 0 176 176" style="enable-background:new 0 0 176 176;" xml:space="preserve">
<style type="text/css">
	.st0{fill:none;}
	.st1{fill:#162E55;}
</style>
<rect class="st0" width="176" height="176"/>
<g>
	<path class="st1" d="M5.1,57.1h2.7v2.7h2.5v-2.7H13v8.3h-2.5v-2.7H7.8v2.7H5.1V57.1L5.1,57.1z M16.9,59.8h-2.5v-2.7h7.7v2.7h-2.5
		v5.6h-2.7L16.9,59.8L16.9,59.8L16.9,59.8z M23.2,57.1h2.9l1.7,2.9l1.7-2.9h2.9v8.3h-2.7v-4.1l-1.9,2.9l0,0l-1.9-2.9v4.1h-2.7V57.1z
		 M34.1,57.1h2.7v5.6h3.9v2.7h-6.8L34.1,57.1L34.1,57.1z"/>
	<path class="st1" d="M1,69.2l4.1,44.7l17.8,5l18-5L45,69.2C44.9,69.2,1,69.2,1,69.2z M36.4,79.9l-0.2,2.7L36,83.7H22.8l0,0h-7.7
		l0.6,5.6h7.2l0,0h12.8l-0.2,1.5l-1.4,14.5v1l-11.2,3.1l0,0l0,0l-11.2-3.1l-0.8-8.7h5.4l0,0l0.4,4.4l6.2,1.7l0,0l0,0l6.2-1.7
		l0.6-7.2h-6.8l0,0H10.7L9.3,79.9l-0.2-1.5h13.7l0,0h13.7L36.4,79.9z"/>
	<path class="st1" d="M77.8,62.7V60h3.9v-2.9h-6.8v8.3h6.8v-2.7C81.6,62.7,77.8,62.7,77.8,62.7z M88.6,60h2.7v-2.9h-6.8V60
		c1,1,1.4,1.4,2.7,2.7c-0.8,0-2.7,0-2.7,0v2.7h6.8v-2.7L88.6,60L88.6,60z M98.2,60h2.7v-2.9h-6.8V60c1,1,1.4,1.4,2.7,2.7
		c-0.8,0-2.7,0-2.7,0v2.7h6.8v-2.7L98.2,60L98.2,60z"/>
	<path class="st1" d="M66,69.2l4.1,44.9l18,4.8l18-4.8l4.1-44.9H66z M101.7,78.3l-0.6,5.4l0,0L88,89.4l0,0l0,0h12.8l-1.5,16.8
		L88,109.5l0,0l0,0l-11.2-3.3L76,97.7l0,0l0,0h5.6l0.4,4.4l6,1.5l0,0l0,0l6.2-1.7l0.4-7.2H88l0,0H75.6l0,0l-0.4-5.2L88,84.1l0,0
		l0.8-0.4H88H74.7l-0.6-5.4H88L101.7,78.3L101.7,78.3L101.7,78.3z"/>
	<path class="st1" d="M148.3,59.8v2.7h-1.7v-1h-2.1v3.9h6.8v-8.3h-2.9v2.7H148.3z M158.2,60h2.7v-2.9h-6.8V60c1,1,1.4,1.4,2.7,2.7
		c-0.8,0-2.7,0-2.7,0v2.7h6.8v-2.7L158.2,60L158.2,60z"/>
	<path class="st1" d="M131.1,68.9l4.1,45l17.8,5l18-5l4.1-45H131.1z M151.4,108.1l-13-3.5v-5.2l8.5,2.3v-23h4.4
		C151.4,78.7,151.4,108.1,151.4,108.1z M168.4,83.7h-9.3v7.7l8.7-1l-1.2,14.3l-11.8,3.1v-5.2l8.5-2.3l0.2-4.3l-8.5,1.5l-0.2-19.1
		H169L168.4,83.7z"/>
</g>
</svg>
