<?xml version="1.0" encoding="utf-8"?>
<!-- Generator: Adobe Illustrator 22.1.0, SVG Export Plug-In . SVG Version: 6.00 Build 0)  -->
<svg version="1.1" id="Layer_1" xmlns="http://www.w3.org/2000/svg" xmlns:xlink="http://www.w3.org/1999/xlink" x="0px" y="0px"
	 viewBox="0 0 176 176" style="enable-background:new 0 0 176 176;" xml:space="preserve">
<style type="text/css">
	.st0{fill:none;}
	.st1{fill:#162E55;}
</style>
<rect class="st0" width="176" height="176"/>
<g>
	<path class="st1" d="M82.8,89c-5.6-11.2-5.5-25.2,1.6-36.7c1.9-3.1,4.1-5.9,6.6-8.2c-15.9-1.2-31.8,6.5-40.6,21
		c-6,9.9-7.6,21.2-5.5,31.8C57.8,104.4,74.2,100.9,82.8,89"/>
	<path class="st1" d="M91.8,92C85,102.7,73,109.6,59.5,109.6c-3.6,0-7.1-0.5-10.5-1.5c7.4,14.2,22.2,23.8,39.2,23.8
		c11.5,0,22.1-4.5,30-11.7C118,105.4,106.5,93.2,91.8,92"/>
	<path class="st1" d="M125.8,110.4c7.6-12.7,8.5-29.1,1-43.1c-5.5-10-14.3-17.1-24.3-20.5c-12.9,7-18.2,22.7-12.5,36.1
		C107,83.3,121.2,94.8,125.8,110.4"/>
</g>
</svg>
