<?xml version="1.0" encoding="utf-8"?>
<!-- Generator: Adobe Illustrator 22.1.0, SVG Export Plug-In . SVG Version: 6.00 Build 0)  -->
<svg version="1.1" id="Layer_1" xmlns="http://www.w3.org/2000/svg" xmlns:xlink="http://www.w3.org/1999/xlink" x="0px" y="0px"
	 viewBox="0 0 176 176" style="enable-background:new 0 0 176 176;" xml:space="preserve">
<style type="text/css">
	.st0{fill:none;}
	.st1{fill:#162E55;}
</style>
<rect class="st0" width="176" height="176"/>
<g>
	<path class="st1" d="M72.4,120.8c0,0-4.5,2.7,3.2,3.6c9.4,1.1,14.3,0.9,24.6-1.1c0,0,2.8,1.7,6.6,3.2
		C83.5,136.7,54.1,126,72.4,120.8"/>
	<path class="st1" d="M69.5,107.6c0,0-5.2,3.9,2.6,4.7c10.1,1.1,18,1.2,31.8-1.6c0,0,1.9,2,4.9,3.1C80.7,122,49.3,114.4,69.5,107.6"
		/>
	<path class="st1" d="M93.6,85.3C99.3,92,92.1,98,92.1,98s14.6-7.6,7.9-17.1c-6.2-8.8-11.1-13.2,15-28.4
		C114.9,52.5,74.1,62.8,93.6,85.3"/>
	<path class="st1" d="M124.4,130.6c0,0,3.3,2.8-3.7,4.9c-13.5,4.1-56,5.3-68,0.1c-4.2-1.9,3.7-4.4,6.2-4.9c2.6-0.5,4.1-0.4,4.1-0.4
		c-4.8-3.3-30.6,6.5-13.1,9.5C97.5,147.4,136.8,136.2,124.4,130.6"/>
	<path class="st1" d="M74.5,94c0,0-21.7,5.2-7.7,7.1c6,0.8,17.8,0.7,28.6-0.3c9-0.8,18-2.4,18-2.4s-3.2,1.3-5.4,2.9
		c-22,5.9-64.5,3.1-52.3-2.8C66.1,93.5,74.5,94,74.5,94"/>
	<path class="st1" d="M113.4,115.9c22.4-11.7,12.1-22.9,4.8-21.5c-1.7,0.4-2.5,0.7-2.5,0.7s0.7-1.1,1.9-1.5
		c14.3-5.1,25.3,14.9-4.6,22.8C112.9,116.5,113.3,116.1,113.4,115.9"/>
	<path class="st1" d="M99.9,28c0,0,12.5,12.5-11.8,31.6c-19.3,15.3-4.4,24.1,0,34.1C76.9,83.5,68.5,74.4,74.1,66
		C82.3,53.7,105,47.9,99.9,28"/>
	<path class="st1" d="M76.7,147.6c21.5,1.3,54.4-0.8,55.2-10.9c0,0-1.5,3.9-17.8,6.9c-18.3,3.5-40.9,3.1-54.3,0.8
		C59.9,144.4,62.6,146.7,76.7,147.6"/>
</g>
</svg>
