<?xml version="1.0" encoding="utf-8"?>
<!-- Generator: Adobe Illustrator 22.1.0, SVG Export Plug-In . SVG Version: 6.00 Build 0)  -->
<svg version="1.1" id="Layer_1" xmlns="http://www.w3.org/2000/svg" xmlns:xlink="http://www.w3.org/1999/xlink" x="0px" y="0px"
	 viewBox="0 0 176 176" style="enable-background:new 0 0 176 176;" xml:space="preserve">
<style type="text/css">
	.st0{fill:none;}
	.st1{fill:#162E55;}
</style>
<rect class="st0" width="176" height="176"/>
<path class="st1" d="M48,48v80h80V48H48z M91.6,110.4c0,7.8-4.5,11.3-11.2,11.3c-6,0-9.5-3.1-11.3-6.8l0,0l0,0l0,0l6.1-3.7
	c1.2,2.1,2.2,3.8,4.8,3.8c2.5,0,4-1,4-4.7V84.7h7.6V110.4z M109.3,121.7c-7,0-11.5-3.3-13.7-7.6l0,0l6.1-3.6
	c1.6,2.7,3.7,4.5,7.4,4.5c3.1,0,5.1-1.6,5.1-3.7c0-2.6-2-3.5-5.5-5l-1.9-0.8c-5.4-2.3-9.1-5.2-9.1-11.3c0-5.6,4.3-10,11-10
	c4.8,0,8.2,1.7,10.7,6l-5.9,3.7c-1.3-2.3-2.7-3.2-4.8-3.2c-2.2,0-3.6,1.4-3.6,3.2c0,2.2,1.4,3.2,4.6,4.5l1.9,0.8
	c6.4,2.8,10,5.6,10,11.9C121.8,118,116.4,121.7,109.3,121.7z"/>
</svg>
