<?xml version="1.0" encoding="utf-8"?>
<!-- Generator: Adobe Illustrator 22.1.0, SVG Export Plug-In . SVG Version: 6.00 Build 0)  -->
<svg version="1.1" id="Layer_1" xmlns="http://www.w3.org/2000/svg" xmlns:xlink="http://www.w3.org/1999/xlink" x="0px" y="0px"
	 viewBox="0 0 176 176" style="enable-background:new 0 0 176 176;" xml:space="preserve">
<style type="text/css">
	.st0{fill:none;}
	.st1{fill:#162E55;}
</style>
<rect class="st0" width="176" height="176"/>
<g>
	<path class="st1" d="M87.3,127.5c-0.4,0-0.9-0.1-1.3-0.3l-3.8-2.3c-0.6-0.3-0.3-0.4-0.1-0.4c0.7-0.3,1-0.3,1.7-0.7
		c0.1,0,0.1,0,0.3,0l3,1.7c0.1,0,0.3,0,0.3,0l11.7-6.8c0.1,0,0.1-0.1,0.1-0.3v-13.5c0-0.1,0-0.3-0.1-0.3l-11.7-6.8
		c-0.1,0-0.3,0-0.3,0l-11.7,6.8c-0.1,0-0.1,0.1-0.1,0.3v13.5c0,0.1,0,0.3,0.1,0.3l3.2,1.9c1.7,0.9,2.9-0.1,2.9-1.1v-13.2
		c0-0.1,0.1-0.3,0.3-0.3h1.4c0.1,0,0.3,0.1,0.3,0.3v13.2c0,2.3-1.3,3.6-3.5,3.6c-0.7,0-1.2,0-2.7-0.7l-3-1.7
		c-0.7-0.4-1.3-1.3-1.3-2.2V105c0-0.9,0.4-1.7,1.3-2.2L86,96c0.7-0.4,1.7-0.4,2.5,0l11.7,6.8c0.7,0.4,1.3,1.3,1.3,2.2v13.5
		c0,0.9-0.4,1.7-1.3,2.2l-11.7,6.8C88.2,127.4,87.7,127.5,87.3,127.5z M90.9,118.3c-5.2,0-6.2-2.3-6.2-4.3c0-0.1,0.1-0.3,0.3-0.3
		h1.6c0.1,0,0.3,0.1,0.3,0.3c0.3,1.6,0.9,2.3,4,2.3c2.5,0,3.5-0.6,3.5-1.9c0-0.7-0.3-1.3-4.2-1.7c-3.2-0.3-5.2-1-5.2-3.6
		c0-2.3,2-3.7,5.3-3.7c3.8,0,5.6,1.3,5.8,4c0,0.1,0,0.1-0.1,0.3c0,0-0.1,0.1-0.3,0.1h-1.6c-0.1,0-0.3-0.1-0.3-0.3
		c-0.3-1.6-1.3-2.2-3.6-2.2c-2.7,0-3,0.9-3,1.6c0,0.9,0.4,1.1,4,1.6c3.6,0.4,5.3,1.1,5.3,3.6C96.9,116.7,94.7,118.3,90.9,118.3z"/>
	<path class="st1" d="M50.9,74.9c0-0.6-0.3-1-0.7-1.3l-12.4-7.2c-0.1-0.1-0.4-0.1-0.7-0.1H37c-0.3,0-0.4,0.1-0.7,0.1l-12.4,7.2
		c-0.4,0.3-0.7,0.7-0.7,1.3V94c0,0.3,0.1,0.6,0.4,0.6c0.3,0.1,0.6,0.1,0.7,0l7.4-4.2c0.4-0.3,0.7-0.7,0.7-1.3v-8.9
		c0-0.6,0.3-1,0.7-1.3l3.2-1.9c0.3-0.1,0.4-0.1,0.7-0.1s0.6,0,0.7,0.1l3.2,1.9c0.4,0.3,0.7,0.7,0.7,1.3v8.9c0,0.6,0.3,1,0.7,1.3
		l7.4,4.2c0.3,0.1,0.6,0.1,0.7,0c0.3-0.1,0.4-0.4,0.4-0.6L50.9,74.9L50.9,74.9z"/>
	<path class="st1" d="M110.9,48.6c-0.3-0.1-0.6-0.1-0.7,0c-0.3,0.1-0.4,0.3-0.4,0.6v19c0,0.1-0.1,0.3-0.3,0.4
		c-0.1,0.1-0.3,0.1-0.6,0l-3.2-1.7c-0.4-0.3-1-0.3-1.4,0L91.8,74c-0.4,0.3-0.7,0.7-0.7,1.3v14.2c0,0.6,0.3,1,0.7,1.3l12.4,7.2
		c0.4,0.3,1,0.3,1.4,0l12.4-7.2c0.4-0.3,0.7-0.7,0.7-1.3V53.9c0-0.6-0.3-1-0.7-1.3L110.9,48.6L110.9,48.6z M109.7,84.8
		c0,0.1,0,0.3-0.1,0.3l-4.2,2.4c-0.1,0-0.3,0-0.4,0l-4.3-2.4c-0.1,0-0.1-0.1-0.1-0.3v-4.9c0-0.1,0-0.3,0.1-0.3l4.2-2.4
		c0.1,0,0.3,0,0.4,0l4.2,2.4c0.1,0,0.1,0.1,0.1,0.3v4.9H109.7z"/>
	<g transform="translate(401.047404, 70.501129)">
		<path class="st1" d="M-248.8,9.3C-248.3,9-248,8.6-248,8V4.5c0-0.6-0.3-1-0.7-1.3L-261.1-4c-0.4-0.3-1-0.3-1.4,0l-12.4,7.2
			c-0.4,0.3-0.7,0.7-0.7,1.3v14.2c0,0.6,0.3,1,0.7,1.3l12.4,7c0.4,0.3,1,0.3,1.4,0l7.5-4.2c0.3-0.1,0.4-0.4,0.4-0.6
			s-0.1-0.6-0.4-0.6l-12.6-7.2c-0.3-0.1-0.4-0.4-0.4-0.6V9.6c0-0.3,0.1-0.6,0.4-0.6l3.9-2.2c0.3-0.1,0.6-0.1,0.7,0l3.9,2.2
			c0.3,0.1,0.4,0.4,0.4,0.6V13c0,0.3,0.1,0.6,0.4,0.6c0.3,0.1,0.6,0.1,0.7,0L-248.8,9.3L-248.8,9.3z"/>
		<path class="st1" d="M-262.1,8.7c0.1,0,0.1,0,0.3,0l2.3,1.4c0.1,0,0.1,0.1,0.1,0.3v2.7c0,0.1,0,0.1-0.1,0.3l-2.3,1.4
			c-0.1,0-0.1,0-0.3,0l-2.3-1.4c-0.1,0-0.1-0.1-0.1-0.3v-2.7c0-0.1,0-0.1,0.1-0.3L-262.1,8.7L-262.1,8.7z"/>
	</g>
	<g>
		<path id="path-2_2_" class="st1" d="M71.9,66.7c-0.4-0.3-1-0.3-1.4,0l-12.4,7c-0.4,0.3-0.7,0.7-0.7,1.3v14.2c0,0.6,0.3,1,0.7,1.3
			l12.4,7c0.4,0.3,1,0.3,1.4,0l12.4-7c0.4-0.3,0.7-0.7,0.7-1.3V75c0-0.6-0.3-1-0.7-1.3L71.9,66.7L71.9,66.7z"/>
	</g>
</g>
</svg>
