<?xml version="1.0" encoding="utf-8"?>
<!-- Generator: Adobe Illustrator 22.1.0, SVG Export Plug-In . SVG Version: 6.00 Build 0)  -->
<svg version="1.1" id="Layer_1" xmlns="http://www.w3.org/2000/svg" xmlns:xlink="http://www.w3.org/1999/xlink" x="0px" y="0px"
	 viewBox="0 0 176 176" style="enable-background:new 0 0 176 176;" xml:space="preserve">
<style type="text/css">
	.st0{fill:none;}
	.st1{fill:#162E55;}
</style>
<rect class="st0" width="176" height="176"/>
<g>
	<path class="st1" d="M116.8,79.1h-4.7l-2.5,13.2h4.1c2.8,0,4.8-0.5,6.1-1.6c1.3-1.1,2.3-2.8,2.8-5.2c0.5-2.4,0.3-4-0.7-4.9
		C121.1,79.6,119.5,79.1,116.8,79.1z"/>
	<g>
		<path class="st1" d="M63.1,79.1h-4.7l-2.5,13.2H60c2.8,0,4.8-0.5,6.1-1.6c1.3-1.1,2.3-2.8,2.8-5.2c0.5-2.4,0.3-4-0.7-4.9
			S65.7,79.1,63.1,79.1z"/>
		<path class="st1" d="M88,56.5c-33.2,0-60,14.1-60,31.5s26.8,31.5,60,31.5s60-14.1,60-31.5S121.2,56.5,88,56.5z M71.7,93.7
			c-1.5,1.3-2.9,2.3-4.5,2.8s-3.9,0.8-6.5,0.8h-5.9l-1.6,8.4h-6.9l6.1-31.5h13.2c4,0,6.9,1.1,8.7,3.2s2.4,5.1,1.6,8.8
			c-0.3,1.6-0.8,2.9-1.5,4.3C73.7,91.7,72.9,92.5,71.7,93.7z M91.9,97.3l2.7-14c0.3-1.6,0.1-2.7-0.3-3.2s-1.7-0.9-3.5-0.9h-5.5
			l-3.5,18.1H75l6.1-31.5H88l-1.6,8.4h6.1c3.9,0,6.5,0.7,7.9,2c1.3,1.3,1.9,3.5,1.3,6.5l-2.8,14.6H91.9z M129.9,86
			c-0.3,1.6-0.8,2.9-1.5,4.3c-0.7,1.3-1.6,2.4-2.8,3.5c-1.5,1.3-2.9,2.3-4.5,2.8s-4,0.8-6.5,0.8h-5.9l-1.6,8.4H100l6.1-31.5h13.2
			c4,0,6.9,1.1,8.7,3.2S130.5,82.2,129.9,86z"/>
	</g>
</g>
</svg>
