<?xml version="1.0" encoding="utf-8"?>
<!-- Generator: Adobe Illustrator 22.1.0, SVG Export Plug-In . SVG Version: 6.00 Build 0)  -->
<svg version="1.1" id="Layer_1" xmlns="http://www.w3.org/2000/svg" xmlns:xlink="http://www.w3.org/1999/xlink" x="0px" y="0px"
	 viewBox="0 0 176 176" style="enable-background:new 0 0 176 176;" xml:space="preserve">
<style type="text/css">
	.st0{fill:none;}
	.st1{fill:#162E55;}
</style>
<rect class="st0" width="176" height="176"/>
<g>
	<path class="st1" d="M119.2,72.9c-1-0.3-2-0.6-3.1-1c0.2-0.8,0.3-1.4,0.4-2.1c2.4-11.4,0.9-20.6-4.4-23.6
		c-5.1-2.9-13.3,0.1-21.6,7.3c-0.8,0.6-1.6,1.4-2.4,2.3c-0.5-0.5-1.1-1-1.6-1.5c-8.8-7.7-17.5-11-22.8-7.9
		c-5.1,2.9-6.6,11.6-4.4,22.4c0.2,1.1,0.4,2.1,0.8,3.2c-1.3,0.3-2.5,0.8-3.6,1.1C46.2,76.6,39.6,82.2,39.6,88c0,6,7,12,17.8,15.7
		c0.9,0.3,1.7,0.5,2.6,0.9c-0.3,1.2-0.5,2.4-0.8,3.4c-2,10.6-0.4,19.1,4.6,22c5.2,3,13.9-0.1,22.4-7.5c0.6-0.5,1.4-1.2,2-1.8
		c0.9,0.9,1.7,1.6,2.6,2.4c8.2,7.1,16.4,9.9,21.4,7c5.2-3,6.9-12.1,4.7-23.1c-0.2-0.9-0.3-1.7-0.5-2.6c0.6-0.2,1.2-0.3,1.8-0.5
		c11.1-3.7,18.3-9.6,18.3-15.7C136.4,82.1,129.7,76.5,119.2,72.9L119.2,72.9z M116.8,99.7c-0.5,0.2-1.1,0.3-1.6,0.5
		c-1.2-3.9-2.9-7.9-5-12.2c1.9-4.2,3.6-8.3,4.7-12c1,0.3,1.9,0.5,2.9,0.9c8.9,3.1,14.4,7.6,14.4,11.2
		C132.4,91.7,126.4,96.5,116.8,99.7L116.8,99.7z M112.9,107.5c1,4.8,1.1,9.3,0.4,12.8c-0.5,3.1-1.7,5.2-3.1,6
		c-3,1.7-9.6-0.5-16.6-6.6c-0.8-0.6-1.6-1.4-2.5-2.3c2.7-3,5.5-6.4,8.1-10.3c4.7-0.4,9.2-1.1,13.1-2
		C112.5,106,112.6,106.8,112.9,107.5L112.9,107.5z M72.6,126c-3,1.1-5.4,1.1-6.8,0.2c-3-1.7-4.3-8.6-2.6-17.6
		c0.2-1.1,0.4-2.1,0.8-3.2c4,0.9,8.4,1.5,13,1.9c2.7,3.8,5.5,7.2,8.3,10.2c-0.6,0.6-1.2,1.2-1.8,1.7C79.7,122.5,75.9,124.8,72.6,126
		L72.6,126z M58.6,99.7c-4.7-1.6-8.6-3.7-11.3-6c-2.4-2-3.7-4.1-3.7-5.7c0-3.5,5.3-8.1,14-11.1c1.1-0.3,2.2-0.8,3.3-1.1
		c1.2,4,2.8,8.1,4.7,12.2c-1.9,4.2-3.6,8.4-4.7,12.4C60.2,100.1,59.4,99.9,58.6,99.7L58.6,99.7z M63.3,67.8
		c-1.8-9.2-0.6-16.3,2.5-18c3.2-1.8,10.4,0.8,18,7.5c0.4,0.4,1,0.9,1.5,1.3c-2.8,3-5.6,6.4-8.3,10.2c-4.5,0.4-8.9,1.1-12.9,2
		C63.7,69.8,63.5,68.8,63.3,67.8L63.3,67.8z M105.1,78.1c-1-1.6-1.9-3.2-2.9-4.8c3.1,0.4,6,0.9,8.8,1.5c-0.9,2.7-1.8,5.5-3.1,8.3
		C106.9,81.4,106.1,79.8,105.1,78.1L105.1,78.1z M88,61.6c1.9,2,3.8,4.4,5.7,6.9c-1.9-0.1-3.8-0.1-5.7-0.1s-3.8,0-5.7,0.1
		C84.2,66,86.1,63.6,88,61.6L88,61.6z M70.9,78.1c-1,1.6-1.8,3.3-2.7,5c-1.2-2.9-2.3-5.7-3.1-8.4c2.8-0.6,5.7-1.1,8.8-1.5
		C72.8,74.9,71.8,76.5,70.9,78.1L70.9,78.1L70.9,78.1z M74,102.8c-3.1-0.3-6.1-0.9-8.9-1.4c0.9-2.8,1.9-5.6,3.1-8.5
		c0.9,1.7,1.8,3.3,2.8,5l0,0C71.8,99.6,72.9,101.2,74,102.8L74,102.8z M88.1,114.5c-1.9-2.1-3.9-4.4-5.8-7c1.8,0.1,3.8,0.1,5.7,0.1
		c1.9,0,3.9,0,5.8-0.1C92,110.1,90,112.5,88.1,114.5L88.1,114.5z M107.9,92.7c1.3,2.9,2.4,5.8,3.2,8.5c-2.8,0.6-5.8,1.2-9,1.5
		c1-1.6,2-3.2,3-4.9C106.1,96.2,107.1,94.4,107.9,92.7L107.9,92.7z M101.6,95.7c-1.5,2.6-3.1,5.2-4.6,7.5c-2.9,0.2-5.8,0.3-8.8,0.3
		s-5.9-0.1-8.7-0.3c-1.6-2.4-3.2-4.9-4.7-7.5l0,0c-1.5-2.6-2.9-5.2-4.1-7.8c1.3-2.6,2.6-5.3,4.1-7.8l0,0c1.5-2.6,3.1-5,4.7-7.4
		c2.9-0.2,5.8-0.3,8.8-0.3l0,0c3,0,5.9,0.1,8.8,0.3c1.6,2.4,3.1,4.8,4.6,7.4s2.9,5.3,4.2,7.7C104.5,90.6,103.1,93.2,101.6,95.7
		L101.6,95.7z M110.1,49.7c3.2,1.8,4.5,9.3,2.5,19.2c-0.1,0.6-0.3,1.3-0.4,1.9c-4-1-8.4-1.6-12.9-2c-2.7-3.8-5.4-7.2-8.2-10.2
		c0.8-0.8,1.5-1.4,2.3-2C100.4,50.4,107.1,47.9,110.1,49.7L110.1,49.7z M88,79.3c4.7,0,8.6,3.9,8.6,8.6s-3.9,8.6-8.6,8.6
		s-8.6-3.9-8.6-8.6S83.3,79.3,88,79.3L88,79.3z"/>
</g>
</svg>
