<?xml version="1.0" encoding="iso-8859-1"?>
<!-- Generator: Adobe Illustrator 17.0.0, SVG Export Plug-In . SVG Version: 6.00 Build 0)  -->
<!DOCTYPE svg PUBLIC "-//W3C//DTD SVG 1.1//EN" "http://www.w3.org/Graphics/SVG/1.1/DTD/svg11.dtd">
<svg version="1.1" id="Layer_1" xmlns="http://www.w3.org/2000/svg" xmlns:xlink="http://www.w3.org/1999/xlink" x="0px" y="0px"
	 width="540px" height="428px" viewBox="0 0 540 428" style="enable-background:new 0 0 540 428;" xml:space="preserve">
<g>
	<path style="fill:#F3F6FC;" d="M502.517,172.458c-0.559,5.206-1.342,10.53-2.37,15.974c-0.24,1.272-0.491,2.551-0.757,3.836
		c-0.173,0.837-0.352,1.674-0.536,2.517c-5.042,23.025-14.32,48.12-28.769,75.273c-2.271,4.265-4.668,8.582-7.195,12.95
		c-0.81,1.392-1.628,2.792-2.462,4.194c-0.177,0.3-0.356,0.602-0.537,0.902c-9.925,16.624-20.532,31.246-31.671,44.01
		c-0.197,0.228-0.395,0.452-0.593,0.679c-0.478,0.545-0.957,1.087-1.437,1.622c-0.202,0.227-0.405,0.452-0.608,0.678
		c-0.514,0.572-1.031,1.14-1.547,1.704c-0.515,0.562-1.031,1.122-1.55,1.678c-0.202,0.217-0.405,0.434-0.607,0.648
		c-0.186,0.201-0.373,0.397-0.557,0.593c-0.216,0.23-0.431,0.457-0.648,0.684c-0.175,0.182-0.349,0.366-0.523,0.546
		c-0.218,0.228-0.435,0.454-0.651,0.677c-0.304,0.317-0.607,0.63-0.913,0.941c-0.361,0.368-0.72,0.735-1.079,1.098
		c-0.251,0.255-0.503,0.509-0.755,0.762c-1.488,1.494-2.986,2.96-4.49,4.392c-0.237,0.224-0.471,0.45-0.71,0.673
		c-1.678,1.588-3.367,3.135-5.065,4.648c-0.301,0.27-0.603,0.538-0.908,0.805c-0.372,0.328-0.743,0.653-1.114,0.976
		c-0.258,0.224-0.516,0.448-0.776,0.671c-0.272,0.237-0.547,0.473-0.821,0.705c-1.012,0.865-2.028,1.717-3.044,2.554
		c-0.265,0.218-0.529,0.434-0.793,0.65c-0.368,0.301-0.736,0.598-1.104,0.896c-0.301,0.242-0.603,0.484-0.906,0.724
		c-0.959,0.764-1.919,1.517-2.883,2.258c-0.321,0.246-0.642,0.493-0.965,0.737c-0.257,0.197-0.516,0.393-0.775,0.586
		c-1.261,0.952-2.528,1.885-3.798,2.797c-0.255,0.184-0.513,0.368-0.77,0.551c-1.691,1.206-3.392,2.379-5.096,3.518
		c-0.231,0.156-0.463,0.31-0.695,0.465c-0.515,0.342-1.032,0.679-1.548,1.014c-0.328,0.215-0.657,0.427-0.988,0.638
		c-0.327,0.21-0.658,0.421-0.987,0.629c-0.283,0.181-0.567,0.358-0.85,0.536c-0.565,0.353-1.133,0.705-1.699,1.052
		c-0.47,0.289-0.943,0.575-1.415,0.86c-0.02,0.013-0.042,0.028-0.065,0.039c-0.205,0.123-0.409,0.247-0.614,0.367
		c-0.437,0.262-0.875,0.521-1.314,0.778c-0.444,0.259-0.888,0.519-1.334,0.773c-0.218,0.127-0.438,0.252-0.658,0.378
		c-0.084,0.05-0.168,0.097-0.255,0.144c-0.365,0.211-0.732,0.417-1.102,0.622c-0.054,0.033-0.111,0.064-0.168,0.094
		c-0.491,0.277-0.983,0.55-1.476,0.819c-0.623,0.341-1.243,0.678-1.868,1.01c-0.565,0.302-1.133,0.601-1.7,0.895
		c-0.149,0.079-0.3,0.157-0.451,0.235c-0.429,0.223-0.858,0.444-1.289,0.662c-0.008,0.005-0.017,0.009-0.029,0.015
		c-0.569,0.289-1.139,0.575-1.708,0.857c-0.002,0.002-0.005,0.002-0.005,0.002c-0.485,0.242-0.974,0.481-1.46,0.717
		c-0.182,0.088-0.363,0.176-0.545,0.264c-0.341,0.165-0.684,0.328-1.028,0.49c-0.222,0.106-0.446,0.211-0.668,0.317
		c-0.453,0.212-0.906,0.424-1.361,0.631c-1.254,0.579-2.513,1.142-3.776,1.688c-0.436,0.193-0.875,0.38-1.313,0.564
		c-0.003,0.004-0.006,0.004-0.013,0.004c-0.229,0.099-0.458,0.196-0.687,0.292c-0.45,0.19-0.9,0.377-1.35,0.564
		c-0.514,0.211-1.03,0.42-1.545,0.624c-0.176,0.074-0.354,0.144-0.532,0.214c-0.152,0.061-0.308,0.123-0.462,0.183
		c-0.268,0.109-0.539,0.214-0.809,0.318c-1.022,0.4-2.048,0.79-3.076,1.166c-0.247,0.092-0.497,0.183-0.746,0.274
		c-0.068,0.024-0.137,0.05-0.206,0.073c-0.469,0.173-0.942,0.343-1.416,0.51c-0.573,0.203-1.146,0.403-1.72,0.599
		c-0.986,0.339-1.975,0.669-2.964,0.99c-0.29,0.095-0.579,0.188-0.87,0.28c-0.013,0.004-0.026,0.008-0.039,0.012
		c-0.494,0.158-0.986,0.314-1.48,0.466c-0.407,0.126-0.814,0.252-1.221,0.374c-0.134,0.04-0.265,0.08-0.398,0.119
		c-0.047,0.015-0.097,0.03-0.146,0.043c-0.25,0.078-0.503,0.15-0.753,0.225c-0.981,0.291-1.964,0.572-2.948,0.841
		c-0.392,0.112-0.787,0.22-1.184,0.324c-0.05,0.015-0.099,0.028-0.151,0.041c-0.296,0.081-0.595,0.16-0.891,0.237
		c-0.123,0.035-0.246,0.066-0.371,0.099c0,0-0.002,0.002-0.003,0c-0.577,0.154-1.155,0.3-1.736,0.444
		c-0.066,0.019-0.135,0.034-0.203,0.051c-0.305,0.076-0.61,0.152-0.914,0.227c-0.357,0.086-0.716,0.174-1.075,0.259
		c-0.239,0.057-0.478,0.114-0.718,0.169c-0.365,0.088-0.733,0.172-1.102,0.254c-0.273,0.064-0.544,0.127-0.821,0.184
		c-0.445,0.102-0.894,0.201-1.344,0.296c-0.498,0.109-0.996,0.214-1.496,0.318c-0.223,0.046-0.446,0.092-0.671,0.136
		c-0.479,0.097-0.96,0.193-1.442,0.288c-0.535,0.104-1.071,0.207-1.606,0.308c-0.446,0.08-0.889,0.162-1.333,0.241
		c-0.31,0.057-0.617,0.11-0.927,0.163c-0.568,0.1-1.138,0.195-1.71,0.289c-0.454,0.076-0.909,0.149-1.362,0.219
		c-0.147,0.023-0.298,0.046-0.448,0.069c-0.52,0.08-1.039,0.159-1.559,0.232c-0.519,0.075-1.039,0.149-1.56,0.219
		c-0.313,0.045-0.627,0.089-0.945,0.126c-0.329,0.046-0.662,0.089-0.993,0.131c-1.229,0.156-2.461,0.301-3.693,0.431
		c-0.374,0.041-0.752,0.079-1.13,0.116c-0.307,0.035-0.618,0.063-0.928,0.092c-0.299,0.029-0.601,0.059-0.902,0.083
		c-0.299,0.029-0.6,0.057-0.906,0.08c-0.391,0.035-0.786,0.068-1.178,0.1c-0.235,0.02-0.472,0.039-0.713,0.055
		c-0.448,0.036-0.899,0.068-1.348,0.099c-0.04,0.003-0.081,0.007-0.125,0.008c-0.566,0.04-1.135,0.075-1.703,0.111
		c-1.195,0.073-2.387,0.132-3.581,0.181c-0.583,0.023-1.167,0.044-1.75,0.064c-0.02,0.001-0.04,0.003-0.056,0
		c-0.467,0.015-0.933,0.029-1.4,0.04c-0.216,0.009-0.431,0.013-0.641,0.015c-0.478,0.013-0.954,0.02-1.432,0.027
		c-0.064,0.003-0.131,0.003-0.194,0.001c-0.562,0.01-1.123,0.015-1.685,0.017c-1.189,0.008-2.376,0.003-3.564-0.012
		c-0.6-0.007-1.199-0.02-1.798-0.032c-0.594-0.014-1.19-0.03-1.784-0.048c-0.455-0.014-0.91-0.03-1.365-0.047
		c-0.287-0.01-0.575-0.022-0.859-0.035c-0.301-0.012-0.6-0.026-0.901-0.041c-0.307-0.012-0.613-0.025-0.916-0.045
		c-0.382-0.018-0.763-0.038-1.145-0.062c-0.166-0.006-0.331-0.017-0.491-0.029c-0.484-0.027-0.967-0.058-1.45-0.09
		c-1.187-0.077-2.372-0.168-3.555-0.268c-0.592-0.049-1.184-0.102-1.775-0.157c-0.491-0.044-0.981-0.092-1.471-0.142
		c-0.182-0.016-0.359-0.035-0.534-0.055c-0.486-0.05-0.971-0.101-1.455-0.156c-0.073-0.005-0.142-0.012-0.207-0.023
		c-0.499-0.052-0.998-0.109-1.496-0.17c-0.226-0.023-0.448-0.05-0.667-0.081c-0.395-0.047-0.79-0.095-1.183-0.144
		c-0.121-0.015-0.241-0.031-0.36-0.048c-0.711-0.091-1.423-0.186-2.134-0.286c-0.71-0.1-1.419-0.201-2.129-0.306l-0.002-0.002
		c-1.063-0.16-2.125-0.328-3.186-0.501c-0.354-0.058-0.709-0.12-1.062-0.18c-1.169-0.199-2.339-0.408-3.505-0.626
		c-0.086-0.016-0.173-0.034-0.259-0.049c-1.662-0.316-3.323-0.65-4.978-1c-1.162-0.248-2.321-0.506-3.477-0.771
		c-0.579-0.133-1.157-0.268-1.734-0.406c-1.732-0.413-3.46-0.848-5.182-1.302c-0.574-0.153-1.148-0.307-1.721-0.462
		c-0.574-0.157-1.145-0.314-1.719-0.475c-0.571-0.16-1.143-0.324-1.713-0.489c-0.555-0.161-1.11-0.323-1.665-0.487
		c-0.039-0.009-0.076-0.02-0.11-0.034c-1.627-0.485-3.248-0.99-4.866-1.51c-0.623-0.202-1.247-0.405-1.869-0.611
		c-0.375-0.125-0.751-0.251-1.126-0.376c-0.378-0.125-0.753-0.253-1.126-0.383c-0.355-0.123-0.707-0.244-1.062-0.367
		c-0.063-0.021-0.123-0.042-0.184-0.064c-0.612-0.214-1.225-0.431-1.836-0.65c-0.16-0.056-0.317-0.112-0.476-0.173
		c-0.307-0.109-0.616-0.22-0.92-0.333c-0.41-0.149-0.82-0.298-1.225-0.453c-0.321-0.118-0.641-0.239-0.96-0.359
		c-0.569-0.213-1.138-0.43-1.705-0.65c-0.554-0.213-1.105-0.429-1.656-0.645c-0.382-0.149-0.764-0.302-1.144-0.453
		c-0.293-0.119-0.589-0.237-0.882-0.356c-0.43-0.176-0.86-0.352-1.292-0.53c-0.17-0.07-0.345-0.142-0.516-0.214
		c-0.002-0.002-0.005-0.001-0.007-0.003c-0.029-0.013-0.058-0.023-0.087-0.036c-0.612-0.254-1.225-0.511-1.836-0.77
		c-0.021-0.009-0.043-0.019-0.065-0.029c-1.26-0.535-2.515-1.082-3.767-1.641c-0.634-0.282-1.267-0.566-1.899-0.855
		c-0.544-0.247-1.086-0.495-1.627-0.748c-0.005-0.001-0.012-0.004-0.016-0.007c-0.194-0.089-0.389-0.18-0.584-0.272
		c-0.518-0.24-1.035-0.485-1.549-0.73c-0.002-0.002-0.005-0.001-0.005-0.001c-0.547-0.261-1.09-0.523-1.633-0.788
		c-0.198-0.095-0.397-0.19-0.592-0.288c-0.412-0.2-0.826-0.402-1.236-0.606c-0.271-0.133-0.542-0.27-0.814-0.406
		c-0.534-0.265-1.062-0.533-1.592-0.804c-0.532-0.267-1.061-0.541-1.589-0.814c-0.514-0.267-1.026-0.535-1.542-0.807
		c-0.095-0.049-0.189-0.099-0.284-0.147c-0.01-0.006-0.016-0.011-0.021-0.012c-3.458-1.83-6.875-3.74-10.242-5.727
		c-0.003,0-0.003,0-0.003,0c-0.4-0.236-0.797-0.472-1.196-0.71C104.177,338.12,61.371,282.948,51.05,224.301
		C23.983,70.5,113.61,14.992,167.082,23.225c41.027,6.317,94.094,3.502,94.094,3.502c24.563-0.854,53.261-14.753,53.261-14.753
		c27.168-13.025,69.222-10.041,106.784,8.77c0,0,0,0,0.003,0C469.741,45.042,510.76,95.743,502.517,172.458z"/>
	<g>
		<g>
			<path style="fill:#8FC0FA;" d="M357.401,64.063c-0.649-0.535-1.303-1.066-1.962-1.593l1.036-1.303
				c0.665,0.533,1.326,1.069,1.981,1.609L357.401,64.063z"/>
			<path style="fill:#8FC0FA;" d="M296.364,345.162c-0.985,0.231-1.977,0.456-2.969,0.671l-0.382-1.641
				c0.982-0.212,1.966-0.438,2.94-0.664c0.633-0.148,1.263-0.302,1.893-0.458l0.431,1.629
				C297.64,344.857,297.003,345.012,296.364,345.162z M303.121,343.414l-0.482-1.616c1.589-0.448,3.172-0.921,4.749-1.419
				l0.53,1.601C306.326,342.483,304.726,342.962,303.121,343.414z M288.477,346.814c-1.645,0.302-3.294,0.579-4.948,0.829
				l-0.279-1.66c1.636-0.248,3.268-0.521,4.897-0.821L288.477,346.814z M312.668,340.396l-0.58-1.585
				c1.557-0.546,3.105-1.117,4.646-1.712l0.629,1.566C315.806,339.268,314.24,339.845,312.668,340.396z M278.554,348.32
				c-1.661,0.2-3.327,0.374-4.994,0.522l-0.178-1.672c1.651-0.147,3.298-0.32,4.943-0.517L278.554,348.32z M321.999,336.789
				l-0.677-1.548c1.519-0.641,3.027-1.308,4.527-1.999l0.724,1.527C325.058,335.467,323.533,336.141,321.999,336.789z
				 M268.549,349.209c-1.672,0.097-3.346,0.168-5.023,0.212l-0.073-1.678c1.658-0.044,3.315-0.114,4.969-0.21L268.549,349.209z
				 M331.08,332.606l-0.772-1.504c1.473-0.736,2.937-1.496,4.389-2.28l0.818,1.48C334.047,331.094,332.568,331.863,331.08,332.606z
				 M258.499,349.48c-1.676-0.006-3.353-0.039-5.031-0.098l0.03-1.677c1.659,0.058,3.319,0.09,4.978,0.096L258.499,349.48z
				 M339.873,327.859l-0.863-1.454c1.422-0.827,2.834-1.678,4.233-2.553l0.908,1.428
				C342.737,326.163,341.31,327.023,339.873,327.859z M248.442,349.131c-1.674-0.11-3.348-0.246-5.019-0.408l0.132-1.671
				c1.655,0.161,3.311,0.294,4.968,0.403L248.442,349.131z M348.345,322.566l-0.951-1.399c1.366-0.915,2.72-1.854,4.061-2.815
				l0.994,1.37C351.093,320.694,349.725,321.641,348.345,322.566z M238.417,348.161c-1.665-0.212-3.329-0.452-4.988-0.716
				l0.235-1.657c1.644,0.261,3.29,0.498,4.938,0.709L238.417,348.161z M356.46,316.75l-1.037-1.339c1.305-1,2.596-2.022,3.874-3.067
				l1.076,1.307C359.082,314.707,357.777,315.74,356.46,316.75z M228.46,346.574c-1.649-0.315-3.296-0.656-4.939-1.023l0.339-1.638
				c1.626,0.363,3.255,0.701,4.888,1.013L228.46,346.574z M364.187,310.429l-1.116-1.273c1.238-1.08,2.462-2.182,3.671-3.306
				l1.154,1.238C366.674,308.224,365.437,309.338,364.187,310.429z M218.615,344.374c-1.627-0.417-3.251-0.858-4.871-1.328
				l0.44-1.611c1.603,0.463,3.209,0.901,4.82,1.313L218.615,344.374z M371.498,303.633l-1.191-1.203
				c1.167-1.156,2.319-2.333,3.456-3.531l1.227,1.166C373.842,301.276,372.678,302.465,371.498,303.633z M208.915,341.569
				c-1.599-0.516-3.193-1.059-4.782-1.626l0.539-1.58c1.574,0.562,3.151,1.098,4.734,1.61L208.915,341.569z M378.369,296.389
				l-1.263-1.128c1.092-1.227,2.168-2.474,3.229-3.742l1.296,1.09C380.56,293.89,379.472,295.15,378.369,296.389z M199.402,338.169
				c-1.564-0.614-3.123-1.255-4.674-1.919l0.638-1.541c1.536,0.658,3.078,1.29,4.627,1.899L199.402,338.169z M384.776,288.727
				l-1.328-1.051c1.019-1.297,2.015-2.608,2.987-3.928l1.358,1.01C386.811,286.092,385.805,287.415,384.776,288.727z
				 M190.112,334.188c-1.524-0.71-3.041-1.445-4.55-2.205l0.735-1.496c1.492,0.752,2.993,1.479,4.502,2.181L190.112,334.188z
				 M390.687,280.694l-1.388-0.969c0.937-1.359,1.849-2.729,2.738-4.109l1.416,0.925
				C392.556,277.936,391.634,279.321,390.687,280.694z M181.081,329.642c-1.478-0.801-2.948-1.629-4.408-2.479l0.827-1.447
				c1.445,0.842,2.898,1.66,4.361,2.453L181.081,329.642z M396.089,272.303l-1.444-0.881c0.85-1.417,1.675-2.841,2.476-4.276
				l1.469,0.837C397.782,269.432,396.948,270.872,396.089,272.303z M172.333,324.543c-1.43-0.893-2.85-1.81-4.26-2.751l0.915-1.391
				c1.395,0.931,2.801,1.839,4.215,2.722L172.333,324.543z M400.95,263.593l-1.493-0.792c0.757-1.463,1.489-2.936,2.197-4.416
				l1.517,0.746C402.456,260.626,401.715,262.114,400.95,263.593z M163.897,318.914c-1.373-0.978-2.735-1.979-4.087-3.005
				l1.001-1.33c1.338,1.016,2.686,2.007,4.044,2.974L163.897,318.914z M405.253,254.597l-1.539-0.697
				c0.664-1.511,1.302-3.028,1.917-4.552l1.559,0.65C406.569,251.539,405.923,253.071,405.253,254.597z M155.811,312.781
				c-1.323-1.067-2.624-2.15-3.906-3.249l1.079-1.266c1.269,1.086,2.557,2.159,3.867,3.215L155.811,312.781z M408.981,245.337
				l-1.577-0.602c0.568-1.549,1.11-3.105,1.627-4.668l1.595,0.552C410.103,242.198,409.554,243.771,408.981,245.337z
				 M148.098,306.168c-1.255-1.145-2.489-2.303-3.703-3.478l1.157-1.196c1.2,1.163,2.422,2.311,3.665,3.443L148.098,306.168z
				 M412.121,235.849l-1.609-0.503c0.47-1.584,0.914-3.173,1.332-4.766l1.624,0.452
				C413.045,232.643,412.596,234.249,412.121,235.849z M140.801,299.102c-1.184-1.217-2.345-2.45-3.484-3.697l1.23-1.12
				c1.127,1.234,2.277,2.453,3.447,3.658L140.801,299.102z M414.662,226.172l-1.636-0.402c0.37-1.611,0.714-3.227,1.032-4.846
				l1.647,0.35C415.384,222.911,415.036,224.545,414.662,226.172z M133.947,291.603c-1.106-1.286-2.189-2.588-3.251-3.901
				l1.299-1.04c1.049,1.299,2.123,2.587,3.217,3.86L133.947,291.603z M416.594,216.344l-1.656-0.301
				c0.268-1.633,0.511-3.27,0.728-4.908l1.665,0.248C417.111,213.039,416.866,214.693,416.594,216.344z M127.567,283.704
				c-1.024-1.352-2.025-2.716-3.003-4.092l1.362-0.957c0.968,1.361,1.959,2.713,2.973,4.05L127.567,283.704z M417.91,206.4
				l-1.671-0.198c0.167-1.648,0.307-3.299,0.422-4.95l1.675,0.146C418.22,203.067,418.078,204.735,417.91,206.4z M121.687,275.43
				c-0.939-1.411-1.855-2.833-2.746-4.267l1.422-0.868c0.882,1.419,1.787,2.826,2.716,4.222L121.687,275.43z M418.608,196.383
				l-1.677-0.095c0.063-1.657,0.102-3.315,0.114-4.973l1.679,0.042C418.711,193.033,418.673,194.708,418.608,196.383z
				 M116.329,266.816c-0.849-1.465-1.675-2.94-2.477-4.424l1.475-0.777c0.793,1.469,1.61,2.929,2.45,4.378L116.329,266.816z
				 M418.682,186.329l-1.678,0.008c-0.038-1.659-0.102-3.318-0.192-4.976l1.676-0.062
				C418.58,182.975,418.645,184.651,418.682,186.329z M111.515,257.893c-0.758-1.512-1.49-3.034-2.198-4.566l1.522-0.682
				c0.7,1.515,1.426,3.021,2.174,4.517L111.515,257.893z M418.14,176.275l-1.673,0.114c-0.141-1.656-0.307-3.311-0.498-4.962
				l1.667-0.165C417.83,172.931,417.997,174.603,418.14,176.275z M107.259,248.699c-0.662-1.554-1.299-3.118-1.912-4.688
				l1.563-0.587c0.606,1.555,1.237,3.101,1.892,4.64L107.259,248.699z M416.977,166.263l-1.661,0.216
				c-0.242-1.646-0.51-3.289-0.803-4.927l1.653-0.268C416.462,162.941,416.732,164.601,416.977,166.263z M103.581,239.269
				c-0.565-1.59-1.106-3.188-1.62-4.792l1.598-0.487c0.509,1.587,1.043,3.168,1.603,4.741L103.581,239.269z M415.202,156.33
				l-1.642,0.318c-0.343-1.628-0.711-3.254-1.105-4.874l1.631-0.369C414.484,153.042,414.856,154.684,415.202,156.33z
				 M100.489,229.641c-0.467-1.62-0.907-3.246-1.322-4.877l1.626-0.387c0.41,1.613,0.847,3.223,1.308,4.826L100.489,229.641z
				 M411.2,146.932c-0.442-1.606-0.909-3.207-1.402-4.802l1.604-0.47c0.497,1.612,0.969,3.229,1.416,4.852L411.2,146.932z
				 M99.633,219.514l-1.639,0.337c-0.365-1.644-0.706-3.292-1.02-4.945l1.649-0.286C98.934,216.256,99.271,217.887,99.633,219.514z
				 M408.248,137.371c-0.539-1.577-1.105-3.148-1.694-4.711l1.569-0.568c0.596,1.58,1.167,3.166,1.712,4.761L408.248,137.371z
				 M97.764,209.701l-1.658,0.235c-0.264-1.661-0.502-3.325-0.715-4.992l1.666-0.183C97.267,206.41,97.503,208.057,97.764,209.701z
				 M404.714,128.001c-0.636-1.543-1.298-3.077-1.982-4.603l1.53-0.665c0.692,1.542,1.359,3.093,2.002,4.65L404.714,128.001z
				 M96.5,199.803l-1.67,0.132c-0.161-1.671-0.297-3.345-0.407-5.02l1.675-0.08C96.207,196.491,96.341,198.148,96.5,199.803z
				 M400.608,118.857c-0.73-1.501-1.483-2.993-2.262-4.474l1.484-0.761c0.786,1.498,1.549,3.005,2.286,4.523L400.608,118.857z
				 M95.85,189.858l-1.678,0.029c-0.058-1.676-0.09-3.353-0.097-5.029l1.679,0.022C95.76,186.54,95.793,188.199,95.85,189.858z
				 M395.945,109.977c-0.822-1.454-1.667-2.898-2.535-4.331l1.431-0.851c0.879,1.448,1.733,2.906,2.563,4.377L395.945,109.977z
				 M95.812,179.905l-1.678-0.074c0.046-1.674,0.117-3.347,0.213-5.019l1.676,0.125C95.928,176.592,95.857,178.248,95.812,179.905z
				 M390.743,101.394c-0.91-1.401-1.842-2.791-2.799-4.169l1.375-0.94c0.965,1.393,1.908,2.796,2.827,4.212L390.743,101.394z
				 M96.389,169.98l-1.672-0.177c0.149-1.666,0.322-3.33,0.523-4.992l1.667,0.231C96.709,166.686,96.535,168.332,96.389,169.98z
				 M385.018,93.143c-0.995-1.343-2.011-2.673-3.05-3.99l1.311-1.026c1.05,1.331,2.077,2.676,3.083,4.033L385.018,93.143z
				 M97.578,160.125l-1.66-0.281c0.252-1.651,0.529-3.298,0.833-4.942l1.651,0.333C98.102,156.86,97.827,158.491,97.578,160.125z
				 M378.793,85.256c-1.075-1.279-2.171-2.545-3.29-3.797l1.244-1.107c1.131,1.266,2.239,2.545,3.324,3.838L378.793,85.256z
				 M99.378,150.372l-1.642-0.384c0.354-1.629,0.734-3.254,1.139-4.875l1.629,0.434C100.103,147.152,99.728,148.76,99.378,150.372z
				 M372.099,77.763c-1.152-1.211-2.324-2.408-3.518-3.591l1.171-1.182c1.207,1.195,2.391,2.404,3.554,3.628L372.099,77.763z
				 M101.783,140.763l-1.616-0.484c0.454-1.602,0.935-3.198,1.441-4.788l1.6,0.534C102.708,137.598,102.233,139.178,101.783,140.763
				z M364.956,70.69c-1.222-1.14-2.465-2.263-3.729-3.371l1.094-1.254c1.277,1.12,2.533,2.256,3.768,3.406L364.956,70.69z
				 M104.783,131.336l-1.584-0.583c0.554-1.568,1.133-3.129,1.74-4.684l1.565,0.633C105.904,128.24,105.331,129.785,104.783,131.336
				z M108.367,122.127l-1.546-0.68c0.651-1.528,1.327-3.047,2.028-4.559l1.525,0.729
				C109.68,119.112,109.011,120.616,108.367,122.127z M112.522,113.174l-1.503-0.775c0.745-1.481,1.514-2.954,2.311-4.417
				l1.477,0.821C114.02,110.25,113.259,111.708,112.522,113.174z M117.227,104.507l-1.453-0.866c0.837-1.432,1.7-2.856,2.586-4.269
				l1.427,0.909C118.909,101.681,118.056,103.089,117.227,104.507z M122.478,96.139l-1.399-0.953
				c0.923-1.374,1.871-2.737,2.842-4.09l1.369,0.995C124.33,93.431,123.392,94.78,122.478,96.139z"/>
			<path style="fill:#8FC0FA;" d="M128.391,87.922l-1.337-1.038c0.509-0.661,1.024-1.32,1.545-1.977l1.321,1.059
				C129.405,86.614,128.895,87.267,128.391,87.922z"/>
		</g>
		<g>
			<path style="fill:#8FC0FA;" d="M121.326,218.89l-1.628,0.382c-0.207-0.824-0.406-1.647-0.598-2.471l1.635-0.353
				C120.924,217.262,121.121,218.076,121.326,218.89z"/>
			<path style="fill:#8FC0FA;" d="M119.689,211.568l-1.648,0.296c-0.324-1.656-0.619-3.312-0.884-4.966l1.657-0.237
				C119.076,208.295,119.368,209.931,119.689,211.568z M389.426,148.131c-0.494-1.596-1.012-3.179-1.557-4.747l1.585-0.526
				c0.551,1.587,1.076,3.189,1.576,4.804L389.426,148.131z M118.115,201.727l-1.666,0.178c-0.208-1.674-0.384-3.344-0.53-5.011
				l1.672-0.117C117.736,198.424,117.911,200.075,118.115,201.727z M386.145,138.692c-0.604-1.559-1.233-3.102-1.888-4.629
				l1.541-0.639c0.663,1.547,1.3,3.109,1.91,4.686L386.145,138.692z M117.247,191.812l-1.677,0.057
				c-0.086-1.681-0.143-3.358-0.17-5.03l1.679,0.003C117.105,188.494,117.16,190.151,117.247,191.812z M382.207,129.499
				c-0.712-1.512-1.449-3.009-2.212-4.488l1.489-0.748c0.772,1.497,1.518,3.012,2.239,4.544L382.207,129.499z M117.088,181.873
				l-1.679-0.062c0.034-1.68,0.097-3.354,0.192-5.024l1.676,0.124C117.184,178.559,117.121,180.214,117.088,181.873z
				 M377.621,120.601c-0.817-1.459-1.66-2.9-2.526-4.324l1.43-0.855c0.877,1.441,1.73,2.901,2.557,4.377L377.621,120.601z
				 M117.646,171.945l-1.672-0.184c0.155-1.674,0.34-3.343,0.555-5.004l1.666,0.245
				C117.981,168.643,117.799,170.291,117.646,171.945z M372.417,112.043c-0.919-1.397-1.862-2.776-2.828-4.136l1.362-0.955
				c0.978,1.376,1.932,2.772,2.862,4.187L372.417,112.043z M118.92,162.086l-1.657-0.302c0.275-1.656,0.58-3.304,0.914-4.942
				l1.645,0.363C119.493,158.823,119.192,160.451,118.92,162.086z M366.625,103.882c-1.014-1.325-2.048-2.632-3.106-3.919
				l1.29-1.051c1.07,1.302,2.117,2.625,3.143,3.966L366.625,103.882z M120.901,152.361l-1.633-0.421
				c0.393-1.627,0.816-3.246,1.266-4.854l1.617,0.479C121.706,149.153,121.288,150.752,120.901,152.361z M360.276,96.154
				c-1.104-1.253-2.23-2.485-3.376-3.695l1.209-1.143c1.16,1.225,2.299,2.472,3.417,3.739L360.276,96.154z M353.395,88.885
				c-1.189-1.173-2.399-2.323-3.628-3.452l1.124-1.227c1.244,1.142,2.468,2.307,3.672,3.494L353.395,88.885z M123.573,142.821
				l-1.6-0.535c0.509-1.592,1.046-3.174,1.61-4.743l1.581,0.592C124.606,139.685,124.076,141.248,123.573,142.821z M346.019,82.109
				c-1.269-1.086-2.557-2.15-3.862-3.19l1.032-1.305c1.322,1.053,2.625,2.13,3.909,3.229L346.019,82.109z M126.923,133.51
				l-1.56-0.648c0.621-1.549,1.269-3.084,1.945-4.609l1.537,0.702C128.178,130.462,127.537,131.98,126.923,133.51z M338.185,75.864
				c-1.341-0.994-2.701-1.966-4.076-2.913l0.937-1.377c1.391,0.958,2.765,1.941,4.123,2.948L338.185,75.864z M130.929,124.477
				l-1.512-0.757c0.731-1.497,1.487-2.982,2.269-4.451l1.484,0.809C132.398,121.531,131.65,122.997,130.929,124.477z
				 M329.934,70.181c-1.407-0.899-2.831-1.773-4.269-2.622l0.835-1.442c1.456,0.859,2.896,1.743,4.32,2.654L329.934,70.181z
				 M135.571,115.764l-1.457-0.86c0.835-1.44,1.696-2.865,2.582-4.273l1.426,0.911C137.245,112.935,136.395,114.342,135.571,115.764
				z M321.307,65.088c-1.466-0.798-2.946-1.571-4.44-2.318l0.73-1.498c1.511,0.755,3.009,1.536,4.493,2.344L321.307,65.088z
				 M140.821,107.419l-1.393-0.961c0.935-1.374,1.895-2.732,2.879-4.071l1.36,1.009
				C142.693,104.719,141.744,106.061,140.821,107.419z M312.349,60.611c-1.517-0.693-3.047-1.359-4.589-1.999l0.619-1.548
				c1.561,0.647,3.109,1.321,4.646,2.023L312.349,60.611z M146.654,99.478l-1.322-1.055c1.03-1.302,2.086-2.586,3.163-3.85
				l1.285,1.101C148.715,96.923,147.673,98.192,146.654,99.478z M303.103,56.774c-1.561-0.583-3.134-1.141-4.717-1.67l0.507-1.591
				c1.602,0.536,3.193,1.1,4.773,1.69L303.103,56.774z M153.042,91.985l-1.247-1.146c1.122-1.223,2.265-2.427,3.432-3.61
				l1.206,1.189C155.279,89.588,154.149,90.777,153.042,91.985z M293.615,53.601c-1.597-0.472-3.205-0.916-4.821-1.332l0.391-1.625
				c1.636,0.421,3.263,0.871,4.879,1.349L293.615,53.601z M159.949,84.979l-1.162-1.23c1.205-1.138,2.433-2.255,3.682-3.35
				l1.119,1.27C162.353,82.751,161.141,83.855,159.949,84.979z M167.345,78.494l-1.074-1.308c1.284-1.047,2.59-2.071,3.915-3.072
				l1.027,1.346C169.902,76.449,168.613,77.461,167.345,78.494z M283.932,51.111c-1.626-0.357-3.259-0.686-4.9-0.985l0.274-1.651
				c1.66,0.303,3.313,0.636,4.959,0.997L283.932,51.111z M175.187,72.567l-0.978-1.381c1.36-0.951,2.741-1.881,4.139-2.786
				l0.929,1.415C177.895,70.708,176.531,71.626,175.187,72.567z M274.101,49.316c-1.646-0.241-3.297-0.451-4.954-0.632l0.153-1.669
				c1.678,0.183,3.35,0.397,5.015,0.64L274.101,49.316z M183.467,67.211l-0.878-1.445c1.427-0.85,2.872-1.677,4.335-2.478
				l0.825,1.476C186.304,65.555,184.876,66.372,183.467,67.211z M264.173,48.231c-1.651-0.121-3.307-0.212-4.968-0.273l0.033-1.678
				c1.681,0.062,3.357,0.154,5.029,0.277L264.173,48.231z M192.121,62.471l-0.773-1.504c1.485-0.744,2.988-1.464,4.507-2.157
				l0.719,1.529C195.073,61.024,193.588,61.734,192.121,62.471z M254.233,47.863c-1.652-0.001-3.309,0.026-4.968,0.085l-0.088-1.678
				c1.68-0.058,3.356-0.086,5.028-0.085L254.233,47.863z M201.103,58.369l-0.665-1.553c1.536-0.635,3.088-1.245,4.656-1.826
				l0.608,1.574C204.154,57.14,202.621,57.742,201.103,58.369z M244.305,48.21c-1.646,0.117-3.294,0.264-4.944,0.44l-0.207-1.669
				c1.669-0.179,3.337-0.327,5.003-0.445L244.305,48.21z M210.367,54.927l-0.552-1.594c1.578-0.523,3.171-1.019,4.779-1.489
				l0.496,1.613C213.501,53.92,211.926,54.41,210.367,54.927z M234.441,49.265c-1.631,0.234-3.263,0.498-4.895,0.792l-0.324-1.653
				c1.652-0.296,3.303-0.563,4.952-0.8L234.441,49.265z M219.866,52.152l-0.441-1.627c0.826-0.21,1.648-0.416,2.49-0.607
				c0.796-0.187,1.592-0.366,2.389-0.539l0.382,1.641c-0.829,0.179-1.638,0.369-2.488,0.562
				C221.417,51.765,220.64,51.955,219.866,52.152z"/>
			<path style="fill:#8FC0FA;" d="M393.106,155.09l-1.628,0.382c-0.205-0.814-0.416-1.625-0.634-2.432l1.62-0.411
				C392.685,153.447,392.899,154.267,393.106,155.09z"/>
		</g>
		<path style="fill:#8FC0FA;" d="M301.035,364.83l-1.628,0.375l-0.396-1.638l1.614-0.371c1.086-0.255,2.166-0.519,3.242-0.792
			l0.441,1.627C303.222,364.307,302.13,364.573,301.035,364.83z M294.477,366.244c-1.654,0.326-3.307,0.627-4.961,0.904
			l-0.305-1.656c1.638-0.275,3.276-0.573,4.914-0.895L294.477,366.244z M309.169,362.723l-0.483-1.616
			c1.604-0.455,3.198-0.931,4.778-1.427l0.529,1.602C312.396,361.784,310.789,362.264,309.169,362.723z M284.533,367.916
			c-1.67,0.233-3.339,0.442-5.007,0.629l-0.215-1.668c1.654-0.185,3.308-0.392,4.962-0.623L284.533,367.916z M318.77,359.71
			l-0.572-1.588c1.575-0.543,3.138-1.107,4.688-1.69l0.616,1.573C321.936,358.593,320.359,359.162,318.77,359.71z M274.501,369.033
			c-1.681,0.14-3.36,0.256-5.04,0.349l-0.121-1.675c1.664-0.092,3.327-0.208,4.993-0.346L274.501,369.033z M328.181,356.168
			l-0.66-1.554c1.541-0.631,3.068-1.281,4.583-1.951l0.701,1.537C331.277,354.876,329.736,355.531,328.181,356.168z
			 M264.412,369.593c-1.688,0.046-3.374,0.069-5.056,0.068l-0.028-1.679c1.668,0.001,3.337-0.021,5.009-0.067L264.412,369.593z
			 M337.371,352.105l-0.743-1.517c1.501-0.715,2.988-1.449,4.462-2.203l0.785,1.497
			C340.388,350.642,338.886,351.383,337.371,352.105z M254.298,369.589c-1.688-0.047-3.375-0.119-5.057-0.214l0.066-1.675
			c1.667,0.094,3.336,0.164,5.01,0.212L254.298,369.589z M346.314,347.533l-0.827-1.476c1.457-0.798,2.9-1.615,4.328-2.451
			l0.867,1.453C349.239,345.902,347.784,346.727,346.314,347.533z M244.19,369.02c-1.69-0.142-3.377-0.308-5.059-0.498l0.158-1.668
			c1.666,0.188,3.337,0.352,5.012,0.493L244.19,369.02z M354.975,342.463l-0.906-1.428c1.409-0.879,2.802-1.777,4.18-2.692
			l0.945,1.404C357.803,340.67,356.397,341.576,354.975,342.463z M234.087,367.883c-1.68-0.237-3.356-0.496-5.026-0.78l0.253-1.655
			c1.655,0.281,3.314,0.539,4.979,0.772L234.087,367.883z M363.334,336.912l-0.984-1.376c1.35-0.953,2.685-1.924,4.006-2.913
			l1.021,1.349C366.045,334.97,364.697,335.951,363.334,336.912z M224.059,366.184c-1.665-0.329-3.323-0.682-4.976-1.058
			l0.345-1.636c1.637,0.372,3.281,0.721,4.93,1.048L224.059,366.184z M371.336,330.92l-1.059-1.322
			c1.295-1.029,2.574-2.075,3.837-3.136l1.094,1.292C373.933,328.826,372.643,329.881,371.336,330.92z M214.138,363.932
			c-1.644-0.421-3.282-0.866-4.912-1.331l0.436-1.613c1.614,0.463,3.237,0.902,4.866,1.32L214.138,363.932z M378.989,324.482
			l-1.128-1.261c1.234-1.1,2.453-2.216,3.655-3.349l1.163,1.231C381.465,322.245,380.236,323.372,378.989,324.482z M204.352,361.134
			c-1.619-0.512-3.23-1.045-4.834-1.601l0.525-1.585c1.589,0.551,3.185,1.079,4.789,1.586L204.352,361.134z M386.271,317.619
			l-1.195-1.198c1.171-1.168,2.325-2.352,3.462-3.551l1.227,1.165C388.619,315.245,387.454,316.439,386.271,317.619z M194.731,357.8
			c-1.589-0.6-3.168-1.221-4.74-1.864l0.612-1.552c1.557,0.636,3.123,1.252,4.697,1.847L194.731,357.8z M393.157,310.356
			l-1.259-1.133c1.104-1.232,2.191-2.48,3.259-3.741l1.289,1.097C395.369,307.853,394.272,309.111,393.157,310.356z
			 M185.303,353.944c-1.554-0.685-3.098-1.392-4.633-2.12l0.698-1.514c1.52,0.721,3.05,1.421,4.59,2.101L185.303,353.944z
			 M399.627,302.71l-1.319-1.061c1.034-1.294,2.049-2.601,3.045-3.921l1.347,1.026C401.696,300.086,400.671,301.406,399.627,302.71z
			 M176.097,349.579c-1.515-0.769-3.018-1.559-4.512-2.37l0.782-1.471c1.479,0.803,2.97,1.586,4.469,2.348L176.097,349.579z
			 M405.665,294.711l-1.374-0.987c0.959-1.35,1.901-2.713,2.822-4.089l1.4,0.951C407.583,291.973,406.633,293.348,405.665,294.711z
			 M167.141,344.718c-1.47-0.85-2.93-1.721-4.377-2.611l0.862-1.426c1.434,0.883,2.879,1.745,4.336,2.588L167.141,344.718z
			 M411.246,286.383l-1.424-0.913c0.884-1.402,1.747-2.817,2.592-4.243l1.448,0.874C413.011,283.54,412.139,284.966,411.246,286.383
			z M158.461,339.379c-1.422-0.929-2.832-1.877-4.229-2.845l0.939-1.375c1.385,0.958,2.781,1.898,4.191,2.818L158.461,339.379z
			 M416.357,277.746l-1.47-0.835c0.805-1.45,1.589-2.912,2.352-4.384l1.493,0.792C417.961,274.807,417.17,276.282,416.357,277.746z
			 M150.082,333.575c-1.369-1.005-2.725-2.027-4.068-3.07l1.015-1.318c1.33,1.032,2.674,2.046,4.031,3.042L150.082,333.575z
			 M420.981,268.83l-1.514-0.752c0.723-1.494,1.425-2.999,2.105-4.514l1.533,0.71C422.419,265.804,421.711,267.322,420.981,268.83z
			 M142.03,327.328c-1.312-1.076-2.61-2.172-3.896-3.285l1.087-1.261c1.273,1.104,2.56,2.189,3.86,3.256L142.03,327.328z
			 M425.103,259.661l-1.552-0.668c0.638-1.533,1.256-3.076,1.851-4.629l1.569,0.625C426.37,256.556,425.748,258.112,425.103,259.661
			z M134.332,320.654c-1.251-1.145-2.488-2.309-3.711-3.49l1.155-1.197c1.211,1.17,2.437,2.322,3.678,3.459L134.332,320.654z
			 M428.708,250.265l-1.584-0.582c0.552-1.569,1.082-3.145,1.591-4.731l1.599,0.537C429.802,247.09,429.267,248.682,428.708,250.265
			z M127.009,313.576c-1.187-1.212-2.359-2.44-3.513-3.686l1.221-1.13c1.145,1.234,2.305,2.451,3.481,3.651L127.009,313.576z
			 M431.787,240.671l-1.612-0.494c0.464-1.598,0.905-3.204,1.326-4.817l1.624,0.449
			C432.702,237.437,432.255,239.058,431.787,240.671z M120.085,306.113c-1.118-1.274-2.219-2.563-3.306-3.869l1.284-1.06
			c1.075,1.295,2.167,2.572,3.275,3.834L120.085,306.113z M434.326,230.907l-1.637-0.403c0.375-1.624,0.726-3.254,1.054-4.89
			l1.646,0.357C435.058,227.623,434.703,229.269,434.326,230.907z M113.583,298.288c-1.047-1.331-2.075-2.679-3.087-4.041
			l1.342-0.984c1.001,1.349,2.022,2.684,3.058,4.002L113.583,298.288z M436.314,221.003l-1.654-0.312
			c0.282-1.644,0.542-3.294,0.778-4.949l1.662,0.266C436.862,217.679,436.599,219.345,436.314,221.003z M107.522,290.128
			c-0.974-1.391-1.93-2.795-2.869-4.214l1.396-0.909c0.929,1.408,1.877,2.799,2.843,4.177L107.522,290.128z M437.745,210.989
			l-1.668-0.219c0.19-1.66,0.356-3.324,0.499-4.993l1.673,0.173C438.105,207.634,437.936,209.314,437.745,210.989z M101.901,281.623
			c-0.896-1.44-1.773-2.895-2.633-4.365l1.445-0.828c0.852,1.455,1.721,2.897,2.609,4.324L101.901,281.623z M438.613,200.896
			l-1.676-0.127c0.097-1.662,0.17-3.33,0.219-5.001l1.678,0.079C438.784,197.534,438.711,199.217,438.613,200.896z M96.759,272.824
			c-0.815-1.487-1.611-2.987-2.387-4.5l1.491-0.746c0.77,1.499,1.557,2.986,2.365,4.458L96.759,272.824z M438.912,190.792
			l-1.678-0.032c0.003-1.667-0.018-3.337-0.062-5.01l1.678-0.015C438.895,187.424,438.916,189.11,438.912,190.792z M92.112,263.762
			c-0.731-1.527-1.443-3.068-2.134-4.622l1.532-0.66c0.685,1.54,1.39,3.066,2.114,4.579L92.112,263.762z M438.646,180.678
			l-1.676,0.061c-0.09-1.665-0.203-3.334-0.341-5.003l1.673-0.109C438.441,177.314,438.555,178.997,438.646,180.678z
			 M87.972,254.464c-0.645-1.564-1.271-3.14-1.877-4.729l1.568-0.574c0.6,1.575,1.219,3.136,1.859,4.686L87.972,254.464z
			 M437.817,170.586l-1.668,0.155c-0.183-1.66-0.389-3.321-0.618-4.983l1.663-0.201
			C437.425,167.235,437.633,168.911,437.817,170.586z M84.351,244.958c-0.558-1.595-1.095-3.201-1.614-4.819l1.598-0.487
			c0.513,1.604,1.047,3.196,1.6,4.777L84.351,244.958z M436.432,160.546l-1.657,0.247c-0.273-1.649-0.57-3.297-0.89-4.947
			l1.647-0.292C435.855,157.218,436.155,158.883,436.432,160.546z M81.255,235.277c-0.47-1.62-0.919-3.25-1.348-4.893l1.624-0.396
			c0.425,1.627,0.87,3.243,1.335,4.848L81.255,235.277z M434.496,150.587l-1.639,0.337c-0.363-1.631-0.749-3.262-1.159-4.894
			l1.628-0.382C433.739,147.295,434.13,148.942,434.496,150.587z"/>
		<path style="fill:#8FC0FA;" d="M139.821,82.695c1.224,4.873-1.719,9.748-6.571,10.888c-4.853,1.139-9.781-1.889-11.006-6.761
			c-1.225-4.874,1.718-9.752,6.571-10.891C133.667,74.791,138.596,77.821,139.821,82.695z"/>
		<polygon style="fill:#8FC0FA;" points="354.29,70.121 347.22,54.784 363.936,56.559 		"/>
	</g>
	<g>
		<path style="fill:#FFFFFF;" d="M364.372,280.159H153.905c-4.598,0-8.39-3.727-8.471-8.325l-2.399-137.437
			c-0.08-4.598,3.582-8.325,8.18-8.325h210.467c4.598,0,8.39,3.727,8.471,8.325l2.399,137.437
			C372.632,276.431,368.97,280.159,364.372,280.159z"/>
		<g>
			<g>
				<g>
					<path style="fill:#F3F6FC;" d="M350.4,179.332c-0.068-3.875-1.183-7.506-3.065-10.617c-3.758-6.216-10.586-10.392-18.31-10.392
						c-5.421,0-10.325,2.053-13.984,5.428c-4.19,3.844-6.76,9.396-6.652,15.581c0.202,11.6,9.769,21.002,21.369,21.002
						c8.914,0,16.442-5.559,19.354-13.396C349.99,184.578,350.446,182.011,350.4,179.332z M341.723,179.332
						c0.028,1.596-0.246,3.124-0.785,4.532c-1.717,4.57-6.118,7.8-11.332,7.8c-0.106,0-0.213-0.006-0.313-0.012
						c-6.67-0.157-12.117-5.615-12.234-12.32c-0.063-3.612,1.433-6.861,3.866-9.108c2.156-2.003,5.052-3.224,8.251-3.224
						c4.563,0,8.588,2.473,10.781,6.16C341.046,174.969,341.684,177.079,341.723,179.332z"/>
				</g>
				<path style="fill:#C7DEFE;" d="M329.758,200.335l-0.151-8.67c-0.106,0-0.213-0.006-0.313-0.012
					c-6.67-0.157-12.117-5.615-12.234-12.32c-0.063-3.612,1.433-6.861,3.866-9.108l-5.885-6.473
					c-4.19,3.844-6.76,9.396-6.652,15.581C308.591,190.932,318.158,200.335,329.758,200.335z"/>
				<path style="fill:#4E95E5;" d="M350.398,179.331c-0.068-3.874-1.181-7.507-3.061-10.619l-7.382,4.446
					c1.091,1.812,1.729,3.921,1.768,6.173c0.028,1.599-0.248,3.127-0.782,4.531l8.17,3.074
					C349.988,184.577,350.445,182.013,350.398,179.331z"/>
				<path style="fill:#8FC0FA;" d="M347.337,168.713c-3.76-6.215-10.587-10.387-18.311-10.387c-5.421,0-10.323,2.053-13.987,5.425
					l5.888,6.471c2.155-2.001,5.047-3.221,8.25-3.221c4.56,0,8.586,2.474,10.778,6.158L347.337,168.713z"/>
			</g>
			<g>
				<path style="fill:#F3F6FC;" d="M224.665,163.742h68.375c1.405,0,2.564,1.139,2.589,2.544l0,0c0.025,1.405-1.095,2.544-2.5,2.544
					h-68.375c-1.405,0-2.564-1.139-2.589-2.544l0,0C222.141,164.881,223.26,163.742,224.665,163.742z M224.906,177.528h68.375
					c1.405,0,2.524-1.139,2.5-2.544v0c-0.025-1.405-1.184-2.544-2.589-2.544h-68.375c-1.405,0-2.524,1.139-2.5,2.544l0,0
					C222.341,176.389,223.501,177.528,224.906,177.528z M225.057,186.225h68.375c1.405,0,2.524-1.139,2.5-2.544l0,0
					c-0.025-1.405-1.184-2.544-2.589-2.544h-68.375c-1.405,0-2.524,1.139-2.5,2.544l0,0
					C222.493,185.086,223.652,186.225,225.057,186.225z M225.209,194.922h68.375c1.405,0,2.524-1.139,2.5-2.544v0
					c-0.025-1.405-1.184-2.544-2.589-2.544H225.12c-1.405,0-2.524,1.139-2.5,2.544l0,0
					C222.645,193.783,223.804,194.922,225.209,194.922z"/>
			</g>
			<g>
				<path style="fill:#C7DEFE;" d="M162.027,210.853l-0.001-0.076c-0.024-1.384,1.071-2.506,2.456-2.506c8.879,0,38.843,0,47.722,0
					c1.384,0,2.519,1.122,2.543,2.506c0,0.025,0.001,0.051,0.001,0.076c0.024,1.384-1.078,2.506-2.463,2.506h-47.709
					C163.193,213.359,162.052,212.237,162.027,210.853z M212.349,216.968l-47.709,0c-1.384,0-2.487,1.122-2.463,2.506l0.001,0.076
					c0.024,1.384,1.166,2.506,2.55,2.506h47.709c1.384,0,2.487-1.122,2.463-2.506l-0.001-0.076
					C214.875,218.09,213.733,216.968,212.349,216.968z M162.33,228.171l0.001,0.076c0.024,1.384,1.166,2.506,2.55,2.506h47.709
					c1.384,0,2.487-1.122,2.463-2.506l-0.001-0.076c-0.024-1.384-1.166-2.506-2.55-2.506h-47.709
					C163.408,225.665,162.306,226.787,162.33,228.171z M165.071,239.45h47.633c1.405,0,2.524-1.139,2.5-2.544l0,0
					c-0.025-1.405-1.184-2.544-2.589-2.544h-47.633c-1.405,0-2.524,1.139-2.5,2.544l0,0
					C162.507,238.311,163.666,239.45,165.071,239.45z"/>
			</g>
			<g>
				<defs>
					<path id="SVGID_1_" d="M213.496,203.339h-50.478c-0.619,0-1.13-0.502-1.141-1.122l-0.71-40.704
						c-0.011-0.619,0.483-1.122,1.102-1.122h50.478c0.619,0,1.13,0.502,1.141,1.122l0.71,40.704
						C214.609,202.837,214.115,203.339,213.496,203.339z"/>
				</defs>
				<clipPath id="SVGID_2_">
					<use xlink:href="#SVGID_1_"  style="overflow:visible;"/>
				</clipPath>
				<path style="clip-path:url(#SVGID_2_);fill:#F3F6FC;" d="M213.496,203.339h-50.478c-0.619,0-1.13-0.502-1.141-1.122
					l-0.71-40.704c-0.011-0.619,0.483-1.122,1.102-1.122h50.478c0.619,0,1.13,0.502,1.141,1.122l0.71,40.704
					C214.609,202.837,214.115,203.339,213.496,203.339z"/>
				<path style="clip-path:url(#SVGID_2_);fill:#4E95E5;" d="M176.341,198.158l25.173-13.276c1.389-0.733,3.078-0.655,4.422,0.203
					l23.887,15.249l0.076,4.361h-53.624L176.341,198.158z"/>
				<path style="clip-path:url(#SVGID_2_);fill:#8FC0FA;" d="M159.339,193.647l16.714-13.689c1.514-1.24,3.687-1.304,5.313-0.156
					l34.058,24.05h-56.928L159.339,193.647z"/>
				<path style="clip-path:url(#SVGID_2_);fill:#C7DEFE;" d="M199.09,171.594c0.048,2.731-2.128,4.945-4.859,4.945
					c-2.731,0-4.984-2.214-5.032-4.945c-0.048-2.731,2.128-4.945,4.859-4.945C196.79,166.649,199.042,168.863,199.09,171.594z"/>
			</g>
			<g>
				<path style="fill:#8FC0FA;" d="M263.492,221.288H272c0.341,0,0.622,0.276,0.628,0.617l0.33,18.928
					c0.006,0.341-0.266,0.617-0.606,0.617h-8.508c-0.341,0-0.622-0.276-0.628-0.617l-0.33-18.928
					C262.88,221.564,263.152,221.288,263.492,221.288z M278.232,215.124h8.571c0.323,0,0.59,0.262,0.596,0.586l0.439,25.154
					c0.006,0.323-0.252,0.586-0.575,0.586h-8.571c-0.323,0-0.59-0.262-0.596-0.586l-0.439-25.154
					C277.651,215.387,277.909,215.124,278.232,215.124z M247.469,216.859l0.388,22.216c0.023,1.312,1.105,2.375,2.416,2.375h4.993
					c1.312,0,2.356-1.063,2.333-2.375l-0.388-22.216c-0.023-1.312-1.105-2.375-2.416-2.375h-4.993
					C248.491,214.484,247.446,215.547,247.469,216.859z M239.282,203.904h-4.993c-1.312,0-2.356,1.063-2.333,2.375l0.573,32.797
					c0.023,1.312,1.105,2.375,2.416,2.375h4.993c1.312,0,2.356-1.063,2.333-2.375l-0.572-32.797
					C241.675,204.967,240.593,203.904,239.282,203.904z"/>
			</g>
			<path style="fill:#FFFFFF;" d="M322.912,232.57l-0.293-16.809c-0.024-1.347,1.459-2.155,2.598-1.415l12.781,8.298
				c1.023,0.664,1.057,2.144,0.066,2.82l-12.487,8.511C324.464,234.732,322.936,233.926,322.912,232.57z"/>
		</g>
		<g>
			<path style="fill:#2946FB;" d="M366.903,115.138c-1.586-1.232-3.627-1.975-5.843-1.975H151.388c-4.932,0-8.881,3.685-8.802,8.212
				l2.632,150.775c0.065,3.703,2.8,6.837,6.488,7.859c0.825,0.229,1.698,0.353,2.601,0.353h209.672c4.932,0,8.881-3.683,8.802-8.212
				l-2.632-150.775C370.105,118.881,368.848,116.643,366.903,115.138z M370.658,272.151c0.06,3.455-2.952,6.265-6.714,6.265H154.272
				c-0.415,0-0.82-0.034-1.213-0.1c-3.196-0.526-5.666-3.091-5.719-6.166l-2.376-136.12h223.318L370.658,272.151z"/>
		</g>
		<path style="fill:#FFFFFF;" d="M320.038,130.312h-96.089c-3.097,0-5.648-2.305-5.698-5.148l0,0
			c-0.05-2.843,2.421-5.148,5.518-5.148h96.089c3.097,0,5.648,2.305,5.698,5.148l0,0
			C325.606,128.007,323.135,130.312,320.038,130.312z"/>
		<g>
			<path style="fill:#FFFFFF;" d="M151.606,128.035c-0.273,0-0.55-0.096-0.762-0.287c-0.424-0.384-0.435-1.005-0.024-1.389
				l5.046-4.708c0.411-0.383,1.089-0.383,1.513,0c0.424,0.384,0.435,1.005,0.024,1.389l-5.046,4.708
				C152.153,127.939,151.88,128.035,151.606,128.035z"/>
			<path style="fill:#FFFFFF;" d="M156.734,128.035c-0.273,0-0.55-0.096-0.762-0.287l-5.21-4.708
				c-0.424-0.384-0.435-1.005-0.024-1.389c0.411-0.383,1.089-0.383,1.513,0l5.21,4.708c0.424,0.384,0.435,1.005,0.024,1.389
				C157.28,127.939,157.008,128.035,156.734,128.035z"/>
		</g>
		<path style="fill:#FFFFFF;" d="M178.441,121.364c-2.005,0-3.609,1.497-3.577,3.336c0.009,0.488,0.132,0.953,0.347,1.371
			c0.59,1.158,1.874,1.965,3.346,1.965c1.471,0,2.726-0.807,3.276-1.965c0.2-0.418,0.307-0.883,0.299-1.371
			C182.1,122.86,180.444,121.364,178.441,121.364z M177.005,124.699c-0.013-0.757,0.646-1.373,1.471-1.373
			c0.823,0,1.503,0.616,1.517,1.373c0.013,0.755-0.646,1.371-1.469,1.371C177.698,126.071,177.018,125.455,177.005,124.699z"/>
		<path style="fill:#FFFFFF;" d="M168.74,125.681h-5.494c-0.59,0-1.078-0.439-1.087-0.982c-0.009-0.542,0.463-0.982,1.053-0.982
			h5.494c0.59,0,1.078,0.439,1.087,0.982C169.803,125.242,169.33,125.681,168.74,125.681z"/>
		<path style="opacity:0.37;fill:#FFFFFF;" d="M366.903,115.138l-8.769,10.932l-7.987,9.96l-66.336,82.722l-4.833,6.026
			l-0.252,0.313l-4.833,6.026l-37.928,47.299l-1.398,1.742l-0.164,0.205h-80.098c-0.903,0-1.776-0.124-2.601-0.353l0.101-0.126
			l1.252-1.568l100.254-125.407l3.495-4.372l9.999-12.507l4.569-5.717l3.393-4.243l4.838-6.054l5.48-6.853h75.973
			C363.276,113.163,365.317,113.907,366.903,115.138z"/>
		<polygon style="opacity:0.37;fill:#FFFFFF;" points="218.584,113.163 206.701,126.071 197.531,136.03 145.942,192.063 
			144.078,194.086 143.859,194.325 143.496,173.554 143.715,173.305 145.577,171.177 176.336,136.03 185.052,126.071 
			196.347,113.163 		"/>
	</g>
	<g>
		<path style="fill:#8FC0FA;" d="M393.344,423.531H175.96c-2.992,0-5.482-2.448-5.534-5.439l0,0
			c-0.052-2.992,2.353-5.439,5.344-5.439h217.384c2.992,0,5.482,2.448,5.534,5.439l0,0
			C398.741,421.083,396.336,423.531,393.344,423.531z"/>
		<path style="fill:#3F1C1C;" d="M291.321,219.323c0,0-1.916,19.15-0.461,23.188c1.455,4.038,22.425-6.65,22.06-13.015
			c-0.365-6.365,4.263-14.787-5.048-14.902S291.321,219.323,291.321,219.323z"/>
		<path style="fill:#FAD08C;" d="M296.932,187.252c0,0-8.802,1.552-9.905,12.043c-0.15,1.429-0.08,2.875,0.152,4.299
			c0.25,1.535,0.458,4.144-0.622,5.667c-1.601,2.256-1.423,8.178,5.915,13.946c5.088,3.999,12.244,2.384,12.244,2.384
			s0.697,4.691,0.099,5.691c-0.598,1-4.731,2.153-4.731,2.153s1.65,10.806,13.668,5.384c12.018-5.422,9.77-8.652,9.77-8.652
			s-4.831,0.808-5.355-2.769c-0.524-3.576-0.706-7.383-0.706-7.383s10.489-11.652,5.692-19.842
			C318.357,191.982,305.538,184.599,296.932,187.252z"/>
		<path style="fill:#F3A05C;" d="M303.384,232.256c0,0,0.307,5.153,3.694,5.358c3.388,0.205,12.402-6.825,12.402-6.825l2.103,3.415
			c0,0-12.866,12.127-17.101,10.332s-12.074-4.358-6.908-8.05s4.849-4.204,4.849-4.204L303.384,232.256z"/>
		<path style="fill:#553130;" d="M339.12,240.341c0,0-9.438-0.852-15.66-5.301c-2.303-1.647-4.165-3.785-4.946-6.557
			c-2.887-10.26,0.344-16.582,0.344-16.582c1.77,0.154,5.928-4.075,2.253-7.459c-3.673-3.384-6.651,2.23-6.651,2.23
			s0.513-5.769-3.302-12.844c-2.182-4.047-7.448-5.276-11.557-5.588c-5.241-0.396-10.072,2.782-11.706,7.741
			c-0.855,2.596-0.97,4.771-0.97,4.771s-0.453-1.08-0.556-2.752c-0.199-3.218,0.899-8.635,9.027-12.786
			c12.349-6.306,25.514-1.077,32.081,5.076c6.569,6.153,10.24,13.844,10.447,25.687S339.12,240.341,339.12,240.341z"/>
		<path style="fill:#3F1C1C;" d="M323.823,234.205c-0.101,0.275-0.222,0.553-0.363,0.835c-2.303-1.647-4.165-3.785-4.946-6.557
			c-2.887-10.26,0.344-16.582,0.344-16.582c1.77,0.154,5.928-4.075,2.253-7.459c-3.673-3.384-6.651,2.23-6.651,2.23
			s0.513-5.769-3.302-12.844c-2.182-4.047-7.448-5.276-11.557-5.588c-5.241-0.396-10.072,2.782-11.706,7.741
			c-0.855,2.596-0.97,4.771-0.97,4.771s-0.453-1.08-0.556-2.752c0,0,3.692-18.13,21.525-9.133
			C325.728,197.865,328.229,222.207,323.823,234.205z"/>
		<g style="opacity:0.61;">
			<path style="fill:#F3A05C;" d="M304.715,225.591c0,0,3.984-0.846,6.257-2.846c0,0,1.026-0.692-0.234,2
				c-1.26,2.692-5.72,3.727-5.72,3.727L304.715,225.591z"/>
		</g>
		<polygon style="fill-rule:evenodd;clip-rule:evenodd;fill:#000F5B;" points="304.07,332.33 294.749,415.784 296.715,415.784 
			309.189,330.878 		"/>
		<polygon style="fill-rule:evenodd;clip-rule:evenodd;fill:#000F5B;" points="333.332,332.33 345.566,415.784 343.601,415.784 
			328.163,330.878 		"/>
		<path style="fill:#F8C799;" d="M229.82,384.944l-0.494,3.281c0,0,1.655,5.948,0.698,8.409s-9.391,17.15-12.69,17.612
			c-3.299,0.461-5.851-3.023-5.851-3.023s9.003-19.049,9.727-30.432C221.935,369.409,229.82,384.944,229.82,384.944z"/>
		<path style="fill:#F8C799;" d="M260.206,362.097l1.019,3.184c0,0,4.113,4.64,4.356,7.289c0.244,2.649-0.72,19.67-3.445,21.553
			c-2.725,1.882-6.54-0.133-6.54-0.133s-0.468-21.214-4.883-31.821C246.299,351.561,260.206,362.097,260.206,362.097z"/>
		<path style="fill:#A7452D;" d="M228.656,390.979c-0.253,0.98-0.488,1.963-0.877,2.898c-1.097,2.638-2.854,5.027-4.378,7.417
			c-1.65,2.586-3.165,5.265-4.842,7.832c-0.854,1.308-1.826,2.332-3.448,2.556c-0.74,0.102-1.515,0.083-2.254-0.043
			c-0.459-0.078-0.929-0.381-1.374-0.416c-0.381-0.03-0.749,0.206-1.065,0.379c-1.213,0.667-2.323,1.506-3.529,2.185
			c-1.054,0.593-2.193,0.958-3.279,1.48c-0.339,0.163-0.818,0.368-0.93,0.769c-0.165,0.591,0.465,1.206,0.928,1.458
			c1.4,0.763,3.479,0.447,4.99,0.465c3.206,0.04,6.547,0.318,9.736-0.078c1.045-0.13,2.117-0.362,2.802-1.214
			c1.274-1.584,1.674-3.964,2.387-5.817c0.602-1.564,1.32-3.184,2.511-4.392c0.855-0.867,1.967-1.531,3.111-1.948
			c0.406-0.148,0.595-0.268,0.795,0.152c0.328,0.691,0.075,1.857,0.099,2.604c0.048,1.504,0.219,9.073,0.229,9.613
			c0.004,0.218-0.093,0.774,0.019,0.965c0.147,0.25-0.044,0.1,0.369,0.176c0.202,0.037,1.199,0.124,1.374,0
			c0.263-0.187,0.1-1.718,0.108-2.142c0.026-1.499,0.09-2.997,0.188-4.492c0.188-2.869,0.31-5.838,1.009-8.629
			c0.576-2.299,1.249-4.237,1.092-6.664c-0.083-1.283-0.311-2.638-0.958-3.778c-0.932-1.641-2.742-2.884-4.141-4.092
			L228.656,390.979z"/>
		<path style="fill-rule:evenodd;clip-rule:evenodd;fill:#D8212A;" d="M339.175,300.833c0,0-0.111,4.588-0.686,9.893
			c-0.631,5.823-1.821,12.507-4.033,14.922c-3.691,4.032-57.29,6.654-70.788,7.253c-1.954,0.087-3.068,0.131-3.068,0.131
			s-8.239,16.633-16.369,31.723c-4.789,8.887-9.538,17.238-12.546,21.343c0,0-9.844,0-12.059-3.539c0,0,6.658-46.023,13.191-63.816
			c0,0,0,0,0-0.002c1.37-3.735,2.736-6.223,4.034-6.784C244.333,308.728,325.487,296.474,339.175,300.833z"/>
		<path style="fill-rule:evenodd;clip-rule:evenodd;fill:#CA1017;" d="M339.175,300.833c0,0-0.111,4.588-0.686,9.893
			c0,0-23.826,0.156-32.15-0.921c-8.325-1.077-45.079,5.844-44.746,8.461c0.332,2.614,2.075,14.635,2.075,14.635
			c-1.954,0.087-3.068,0.131-3.068,0.131s-8.239,16.633-16.369,31.723l-11.414-46.011c0,0,0,0,0-0.002
			c1.37-3.735,2.736-6.223,4.034-6.784C244.333,308.728,325.487,296.474,339.175,300.833z"/>
		<path style="fill-rule:evenodd;clip-rule:evenodd;fill:#E33031;" d="M304.607,300.832c0,0-37.78,10.665-46.244,14.51
			c0,0,5.506,43.991,3.998,46.914c0,0-7.79,4.307-13.646,3.692c0,0-19.04-59.806-15.424-64.141
			c3.616-4.335,74.039-14.536,74.039-14.536L304.607,300.832z"/>
		<path style="fill:#A7452D;" d="M261.854,368.068c0.211,0.998,0.439,1.991,0.509,3.009c0.197,2.871-0.301,5.81-0.593,8.647
			c-0.316,3.07-0.471,6.164-0.82,9.228c-0.178,1.561-0.586,2.919-1.927,3.841c-0.612,0.421-1.308,0.748-2.021,0.962
			c-0.442,0.133-0.994,0.069-1.405,0.235c-0.352,0.142-0.574,0.519-0.777,0.816c-0.781,1.141-1.394,2.393-2.164,3.542
			c-0.673,1.004-1.522,1.84-2.255,2.794c-0.228,0.297-0.563,0.696-0.484,1.108c0.117,0.608,0.948,0.883,1.472,0.906
			c1.582,0.068,3.288-1.142,4.638-1.796c2.865-1.388,5.956-2.621,8.613-4.395c0.871-0.581,1.719-1.268,1.949-2.342
			c0.427-1.997-0.275-4.325-0.465-6.317c-0.16-1.681-0.243-3.464,0.278-5.084c0.374-1.163,1.067-2.257,1.898-3.142
			c0.295-0.314,0.41-0.507,0.774-0.215c0.599,0.479,0.892,1.645,1.245,2.309c0.711,1.338,4.226,8.102,4.475,8.586
			c0.1,0.195,0.261,0.741,0.446,0.864c0.241,0.161,0.006,0.11,0.405-0.005c0.196-0.056,1.12-0.42,1.22-0.61
			c0.151-0.285-0.674-1.597-0.856-1.983c-0.644-1.366-1.251-2.749-1.829-4.143c-1.108-2.676-2.319-5.413-2.938-8.246
			c-0.51-2.333-0.773-4.384-1.992-6.508c-0.644-1.122-1.448-2.246-2.529-2.988c-1.557-1.069-3.716-1.388-5.496-1.858
			L261.854,368.068z"/>
		<path style="fill:#F8BC40;" d="M303.079,232.392c0,0-1.684,5.696,4.897,6.004s12.645-8.152,12.747-8.344s0.092-0.731,1.289-0.5
			s16.068,4.063,18.511,5.96s5.355,7.178,6.393,16.715c1.038,9.537,1.748,35.532,0.952,36.916s-4.441,4.051-4.441,4.051
			s-0.73,5.178-1.866,7.64l-84.573-2.948l4.667-10.229c0,0,11.632-3.307,12.458-4.461c0.826-1.154,12.982-43.171,18.419-47.734
			C294.748,233.6,303.795,229.939,303.079,232.392z"/>
		<path style="fill:#F6A538;" d="M293.963,252.893c0,0,1.996,26.226-4.19,33.147c-6.186,6.922-10.137,9.69-21.902,9.767
			s-4.427-2.461-4.427-2.461s23.245-3.307,25.591-14.305C291.382,268.044,292.473,246.817,293.963,252.893z"/>
		<path style="fill:#F6A538;" d="M345.361,280.543c0,0-2.967,17.405-5.57,20.289c-2.603,2.883-46.815,0.589-46.796,0.128
			c0.01-0.223,1.439-1.733,0.799-7.58c-0.028-0.25-0.056-0.501-0.082-0.751c-0.335-3.064-2.521-6.03-2.772-8.282l5.376-1.32
			c3.849-0.945,7.717-1.815,11.608-2.584c6.352-1.254,19.105-4.65,19.5-11.745c0.528-9.46-1.86-20.649,0.734-17.419
			c0,0,4.945,23.302,3.817,24.765c-1.128,1.461-33.56,7.228-33.56,7.228s0.397,0.332,0.78,1.083h0.002
			c0.691,1.357,1.304,4.836-0.497,9.44c0,0,25.524,0.783,34.666,0.245C333.366,294.039,339.061,294.27,345.361,280.543z"/>
		<path style="fill:#FAD08C;" d="M298.74,293.04c0,0-2.263-0.065-4.946,0.34c-0.243,0.035-0.488,0.075-0.737,0.121
			c-2.989,0.538-12.902,0.337-13.853-0.615c-0.865-0.865,5.579-6.255,8.368-7.808c0.281-0.156,0.523-0.273,0.718-0.344
			c0.82-0.293,2.605-0.419,4.501-0.461c2.189-0.049,4.523,0.013,5.674,0.054c0,0,0,0,0.002,0c0.456,0.015,0.727,0.027,0.727,0.027
			s0,0,0.002,0.002h0.002C299.889,285.711,300.542,288.436,298.74,293.04z"/>
		<path style="fill-rule:evenodd;clip-rule:evenodd;fill:#A3C5F7;" d="M349.032,327.34c-26.073,16.92-65.98,4.562-65.98,4.562
			c3.09-0.213,6.033-0.558,8.833-1.023c4.4-0.73,8.454-1.751,12.186-3.017c44.65-15.142,43.588-65.134,43.588-65.134
			c0.65-0.26,1.4-0.099,2.211,0.423c3.911,2.516,9.208,13.438,11.259,25.91C363.445,303.129,361.627,319.166,349.032,327.34z"/>
		<path style="fill-rule:evenodd;clip-rule:evenodd;fill:#4E95E5;" d="M349.032,327.34c-26.073,16.92-65.98,4.562-65.98,4.562
			c3.09-0.213,6.033-0.558,8.833-1.023c0,0,54.373,0.21,57.985-67.728c3.911,2.516,9.208,13.438,11.259,25.91
			C363.445,303.129,361.627,319.166,349.032,327.34z"/>
		<g style="opacity:0.61;">
			<path style="fill:#F3A05C;" d="M298.74,293.04c0,0-2.263-0.065-4.946,0.34c-0.243,0.035-0.488,0.075-0.737,0.121
				c-2.989,0.538-12.902,0.337-13.853-0.615c-0.865-0.865,5.579-6.255,8.368-7.808c0,0,2.393,6.732,4.409,7.295
				c0.494,0.138,1.096,0.22,1.732,0.257c1.962,0.112,4.246-0.215,4.624-0.718c0.5-0.666,0.129-7.585,0.129-7.585s0,0,0.002,0
				c0.456,0.015,0.727,0.027,0.727,0.027s0,0,0.002,0.002h0.002C299.889,285.711,300.542,288.436,298.74,293.04z"/>
		</g>
		<g style="opacity:0.61;">
			<path style="fill:#A55921;" d="M286.832,293.787c0.576-0.29,1.158-0.514,1.734-0.752l0.863-0.355l0.864-0.385
				c-0.207,0.25-0.466,0.452-0.737,0.626c-0.273,0.172-0.562,0.316-0.858,0.438c-0.297,0.121-0.603,0.216-0.914,0.292
				C287.473,293.725,287.156,293.78,286.832,293.787z"/>
		</g>
		<g style="opacity:0.61;">
			<path style="fill:#A55921;" d="M283.75,293.676c0.414-0.32,0.843-0.614,1.277-0.898c0.433-0.287,0.874-0.558,1.315-0.829
				c0.445-0.265,0.89-0.529,1.342-0.783c0.451-0.256,0.906-0.503,1.372-0.742c-0.383,0.358-0.801,0.672-1.226,0.972
				c-0.425,0.302-0.864,0.58-1.307,0.851c-0.446,0.266-0.897,0.525-1.358,0.764C284.704,293.253,284.236,293.481,283.75,293.676z"/>
		</g>
		<g style="opacity:0.61;">
			<path style="fill:#A55921;" d="M280.62,293.349c0.453-0.426,0.955-0.788,1.451-1.153c0.498-0.364,1.008-0.71,1.519-1.052
				c0.515-0.337,1.033-0.671,1.56-0.989c0.526-0.321,1.058-0.63,1.603-0.926c-0.461,0.416-0.954,0.789-1.451,1.153
				c-0.497,0.365-1.007,0.711-1.518,1.054c-0.515,0.337-1.033,0.67-1.561,0.987C281.697,292.745,281.156,293.042,280.62,293.349z"/>
		</g>
		<g>
			<polygon style="fill:#1A2982;" points="311.667,297.471 267.981,297.471 267.919,293.943 311.605,293.943 			"/>
			<polygon style="fill:#EFF3F6;" points="259.879,252.523 201.777,252.523 203.825,250.04 261.927,250.04 			"/>
			<polygon style="fill:#1A2982;" points="270.377,297.471 213.363,297.471 259.879,252.523 261.927,250.04 			"/>
			<polygon style="fill:#397CF2;" points="267.981,297.471 209.879,297.471 201.777,252.523 259.879,252.523 			"/>
			<path style="fill:#C7DEFE;" d="M240.04,274.015c0.675,3.261-1.088,6.345-3.938,6.887c-2.85,0.542-5.708-1.662-6.383-4.924
				c-0.675-3.261,1.088-6.345,3.938-6.887C236.507,268.549,239.365,270.754,240.04,274.015z"/>
		</g>
		<g>
			<polygon style="fill-rule:evenodd;clip-rule:evenodd;fill:#16247F;" points="251.449,302.048 260.141,418.092 257.182,418.092 
				246.294,307.513 196.104,307.513 189.076,418.092 186.118,418.092 190.759,302.048 			"/>
			<polygon style="fill-rule:evenodd;clip-rule:evenodd;fill:#16247F;" points="371.985,302.048 380.677,418.092 377.719,418.092 
				366.831,307.513 316.64,307.513 309.612,418.092 306.654,418.092 311.295,302.048 			"/>
			<path style="fill-rule:evenodd;clip-rule:evenodd;fill:#99BFF5;" d="M347.918,297.471H188.691c-1.404,0-2.533,1.149-2.509,2.553
				l0,0c0.025,1.404,1.193,2.552,2.598,2.552h159.227c1.404,0,2.532-1.149,2.508-2.552l0,0
				C350.49,298.62,349.322,297.471,347.918,297.471z"/>
			<path style="fill-rule:evenodd;clip-rule:evenodd;fill:#397CF2;" d="M375.243,297.471h-67.366c-1.404,0-2.532,1.149-2.508,2.553
				l0,0c0.025,1.404,1.193,2.552,2.597,2.552h67.366c1.404,0,2.533-1.149,2.508-2.552l0,0
				C377.816,298.62,376.647,297.471,375.243,297.471z"/>
		</g>
	</g>
	<g>
		<path style="fill:#C7DEFE;" d="M121.21,226.172c0.49,28.1-21.2,51.041-48.941,52.401c-0.863,0.043-1.731,0.064-2.607,0.064
			c-28.975,0-52.874-23.489-53.38-52.464c-0.394-22.586,13.544-41.84,33.433-49.231c5.625-2.092,11.727-3.233,18.116-3.233
			C96.806,173.708,120.704,197.197,121.21,226.172z"/>
		<g style="opacity:0.28;">
			<path style="fill:#8FC0FA;" d="M72.269,278.573c-31.605-33.271-30.298-72.659-22.554-101.632
				c5.625-2.092,11.727-3.233,18.116-3.233c28.975,0,52.873,23.489,53.379,52.464C121.7,254.272,100.01,277.213,72.269,278.573z"/>
		</g>
		<g>
			<g>
				<polygon style="fill:#397CF2;" points="94.169,246.269 86.389,246.269 85.821,213.755 93.601,213.755 				"/>
				<polygon style="fill:#397CF2;" points="67.737,246.269 59.957,246.269 59.655,228.954 67.435,228.954 				"/>
				<polygon style="fill:#397CF2;" points="54.522,246.269 46.742,246.269 46.542,234.828 54.322,234.828 				"/>
				<polygon style="fill:#397CF2;" points="80.953,246.269 73.173,246.269 72.752,222.111 80.532,222.111 				"/>
			</g>
			<g>
				<polygon style="fill:#1F2A83;" points="47.041,227.417 45.744,225.141 85.009,203.251 86.306,205.528 				"/>
			</g>
			<polygon style="fill:#1F2A83;" points="91.216,200.998 83.185,201.428 87.695,208.175 			"/>
			<g>
				<polygon style="fill:#2946FB;" points="94.28,252.617 41.387,252.617 40.545,204.389 41.585,204.389 42.409,251.577 
					94.262,251.577 				"/>
			</g>
		</g>
	</g>
	<path style="fill:#C7DEFE;" d="M142.191,83.937c0.119,6.795-1.563,13.173-4.607,18.684c-6.305,11.422-18.456,19.123-32.541,19.123
		c-20.88,0-38.102-16.926-38.466-37.806c-0.173-9.931,3.498-18.967,9.642-25.714c6.774-7.439,16.555-12.094,27.504-12.094
		C124.605,46.129,141.826,63.055,142.191,83.937z"/>
	<g style="opacity:0.28;">
		<path style="fill:#8FC0FA;" d="M137.584,102.62c-6.305,11.422-18.456,19.123-32.541,19.123c-20.88,0-38.102-16.926-38.466-37.806
			c-0.173-9.931,3.498-18.967,9.642-25.714C79.492,93.656,115.03,101.345,137.584,102.62z"/>
	</g>
	<path style="fill:#1F2A83;" d="M95.427,84.956c-1.063,0.423-1.988,1.148-2.651,2.076c-5.076,7.104,1.844,15.862,9.974,12.623
		c1.063-0.423,1.987-1.148,2.651-2.076C110.476,90.475,103.557,81.718,95.427,84.956z M106.577,82.7
		c-0.978-0.773-2.083-1.402-3.277-1.857c-0.002-0.001-0.002-0.002-0.002-0.004l0.388-3.501l-5.797-0.742l-0.388,3.501
		c-0.001,0.002-0.002,0.003-0.004,0.003c-1.261,0.141-2.468,0.474-3.59,0.976c-0.002,0.001-0.005,0.001-0.007-0.001l-2.207-2.789
		l-4.552,3.565c0,0,2.184,2.763,2.208,2.794c0,0.001,0,0.001-0.002,0.002c-0.755,0.966-1.366,2.059-1.8,3.244
		c-0.001,0.002-0.002,0.003-0.005,0.003l-3.509-0.449l-0.641,5.785l3.509,0.449c0.002,0.001,0.003,0.002,0.003,0.004
		c0.163,1.262,0.518,2.48,1.042,3.608c0,0.001,0,0.003-0.001,0.005l-2.755,2.157l3.647,4.614l2.755-2.157c0.001,0,0.003,0,0.004,0
		c0.979,0.773,2.084,1.403,3.277,1.858c0.002,0,0.002,0.002,0.003,0.003l-0.388,3.502l5.797,0.742l0.389-3.502
		c0-0.001,0.001-0.002,0.002-0.003c1.26-0.141,2.471-0.475,3.591-0.979c0.002,0,0.004,0,0.005,0.001l2.206,2.792l4.553-3.566
		c0,0-2.184-2.763-2.207-2.794c-0.002-0.001,0-0.001,0.001-0.002c0.755-0.965,1.366-2.059,1.8-3.244
		c0.001-0.002,0.002-0.003,0.004-0.002l3.509,0.449l0.641-5.785l-3.509-0.449c-0.002,0-0.003-0.002-0.003-0.004
		c-0.163-1.262-0.519-2.479-1.042-3.608c0-0.001,0-0.003,0.001-0.004l2.755-2.157l-3.646-4.615l-2.755,2.157
		C106.581,82.701,106.579,82.701,106.577,82.7z M107.788,96.736c-2.364,4.762-8.175,6.639-12.979,4.193
		c-4.805-2.447-6.784-8.291-4.42-13.053c2.363-4.762,8.175-6.639,12.98-4.192C108.173,86.13,110.151,91.974,107.788,96.736z"/>
	<path style="fill:#1F2A83;" d="M110.635,64.922c-0.774-0.003-1.536,0.216-2.185,0.626c-4.963,3.138-2.798,10.292,3.12,10.313
		c0.774,0.003,1.536-0.216,2.184-0.626C118.718,72.097,116.553,64.943,110.635,64.922z M118.207,66.305
		c-0.422-0.723-0.96-1.389-1.596-1.968c-0.001-0.001-0.001-0.002,0-0.003l1.117-2.074l-3.459-1.906l-1.117,2.074
		c-0.001,0.001-0.002,0.002-0.003,0.001c-0.828-0.227-1.669-0.322-2.5-0.29c-0.001,0-0.003-0.001-0.004-0.002l-0.691-2.279
		l-3.751,1.075c0,0,0.683,2.258,0.691,2.283c0,0.001,0,0-0.002,0.001c-0.716,0.41-1.372,0.935-1.941,1.562
		c-0.001,0.001-0.002,0.001-0.004,0.001l-2.093-1.154l-1.846,3.426l2.094,1.153c0.001,0.001,0.002,0.002,0.001,0.003
		c-0.212,0.823-0.293,1.666-0.245,2.496c0,0.001-0.001,0.002-0.002,0.003l-2.27,0.65l1.141,3.77l2.27-0.65
		c0.001,0,0.002,0.001,0.003,0.001c0.423,0.723,0.96,1.389,1.596,1.969c0.001,0.001,0.001,0.002,0.001,0.003l-1.118,2.074
		l3.459,1.906l1.118-2.074c0-0.001,0.001-0.001,0.002-0.001c0.827,0.227,1.672,0.322,2.501,0.289
		c0.001,0.001,0.003,0.001,0.003,0.002l0.69,2.281l3.752-1.075c0,0-0.683-2.258-0.69-2.282c-0.001-0.001,0-0.001,0.001-0.001
		c0.715-0.41,1.372-0.935,1.941-1.562c0.001-0.001,0.002-0.001,0.003,0l2.094,1.153l1.846-3.426l-2.094-1.153
		c-0.001-0.001-0.002-0.002-0.001-0.003c0.212-0.823,0.292-1.666,0.245-2.496c0-0.001,0.001-0.002,0.001-0.002l2.27-0.65l-1.14-3.77
		l-2.27,0.65C118.209,66.307,118.208,66.306,118.207,66.305z M115.466,75.307c-2.674,2.363-6.795,2.077-9.205-0.638
		c-2.41-2.715-2.196-6.831,0.478-9.194c2.674-2.362,6.795-2.077,9.205,0.639C118.354,68.829,118.14,72.945,115.466,75.307z"/>
	<path style="fill:#8FC0FA;" d="M123.268,339.651c0.061,3.469-0.897,6.712-2.608,9.468c-3.231,5.207-9.151,8.682-15.978,8.682
		c-10.441,0-19.046-8.125-19.221-18.15c-0.09-5.138,2.053-9.777,5.569-13.079c3.342-3.141,7.929-5.071,13.018-5.071
		C114.489,321.501,123.093,329.628,123.268,339.651z"/>
	<path style="fill:#C7DEFE;" d="M123.282,340.405c0.063,3.613-0.892,6.991-2.601,9.861c-16.129-3.19-24.89-13.323-29.645-23.483
		c3.34-3.271,7.926-5.282,13.014-5.282C114.489,321.501,123.099,329.965,123.282,340.405z"/>
	<g>
		<path style="fill:#F95F35;" d="M102.622,343.229c0.104,0.086,0.21,0.17,0.318,0.251
			C102.831,343.399,102.725,343.315,102.622,343.229z"/>
		<path style="fill:#DB3737;" d="M103.416,343.81l-0.298,0.371l-0.439,0.546l-2.391,2.98l-0.409,0.509l-1.753,2.184l-0.241,0.3
			l-0.224,0.279c-0.136,0.17-0.33,0.275-0.548,0.296c-0.055,0.006-0.11,0.006-0.164,0c-0.159-0.016-0.311-0.078-0.439-0.182
			c-0.149-0.12-0.253-0.29-0.293-0.476c-0.025-0.118-0.023-0.238,0.003-0.351c0.012-0.052,0.029-0.103,0.051-0.153
			c0.001-0.003,0.002-0.004,0.003-0.007c0.027-0.059,0.061-0.115,0.102-0.166l2.408-3.001l0.505-0.629l2.404-2.994l0.432-0.538
			c0.159,0.156,0.324,0.307,0.498,0.45c0.104,0.086,0.209,0.17,0.318,0.251C103.094,343.595,103.252,343.706,103.416,343.81z"/>
		<path style="fill:#BA1717;" d="M104.606,343.646c0,0.015-0.148,0.29-0.338,0.637c-0.297-0.141-0.582-0.3-0.853-0.473l-0.298,0.371
			l-0.439,0.546c-0.34-0.465-0.722-1-0.987-1.41l0.432-0.538c-0.084-0.083-0.167-0.168-0.247-0.255
			C102.983,342.473,104.606,343.61,104.606,343.646z"/>
		<path style="fill:#DB3737;" d="M110.541,330.2c-0.88-0.388-1.803-0.608-2.73-0.659c-1.084-0.06-2.175,0.11-3.21,0.512
			c-1.827,0.709-3.274,2.059-4.107,3.819c-0.043,0.091-0.084,0.183-0.124,0.276c-0.641,1.506-0.761,3.112-0.442,4.619
			c0.295,1.391,0.966,2.697,1.949,3.756c0.08,0.087,0.163,0.172,0.247,0.255c0.159,0.156,0.324,0.307,0.498,0.45
			c0.104,0.086,0.209,0.17,0.318,0.251c0.154,0.115,0.312,0.226,0.476,0.33c0.271,0.173,0.555,0.332,0.853,0.473
			c0.075,0.037,0.152,0.072,0.229,0.106c0.448,0.197,0.906,0.351,1.371,0.461c1.518,0.36,3.099,0.257,4.569-0.314
			c0.99-0.385,1.869-0.957,2.599-1.681c0.687-0.681,1.241-1.496,1.632-2.415C116.335,336.529,114.483,331.935,110.541,330.2z
			 M113.093,339.747c-0.345,0.809-0.852,1.515-1.487,2.084c-0.524,0.47-1.134,0.846-1.812,1.109
			c-1.195,0.464-2.484,0.532-3.712,0.208c-0.311-0.082-0.618-0.189-0.919-0.322c-1.489-0.655-2.643-1.846-3.251-3.354
			c-0.601-1.49-0.596-3.112,0.011-4.575c0.007-0.018,0.014-0.036,0.022-0.054c0.629-1.477,1.8-2.611,3.298-3.193
			c0.759-0.294,1.556-0.429,2.351-0.406c0.774,0.024,1.545,0.197,2.28,0.52c1.89,0.832,3.164,2.507,3.562,4.383
			C113.687,337.32,113.593,338.573,113.093,339.747z"/>
	</g>
	<g>
		<path style="fill:#8FC0FA;" d="M519.101,308.76c0.443,25.39-19.782,45.975-45.172,45.975c-7.583,0-14.77-1.836-21.133-5.09
			c-14.939-7.635-25.332-23.078-25.643-40.885c-0.443-25.39,19.781-45.973,45.171-45.973c14.692,0,27.895,6.892,36.498,17.618
			C515.088,288.215,518.914,298.062,519.101,308.76z"/>
		<g style="opacity:0.23;">
			<path style="fill:#C7DEFE;" d="M508.822,280.404c-7.692,44.681-32.929,62.524-56.026,69.241
				c-14.939-7.635-25.332-23.078-25.643-40.885c-0.443-25.39,19.781-45.973,45.171-45.973
				C487.016,262.787,500.219,269.678,508.822,280.404z"/>
		</g>
		<path style="fill:#FFFFFF;" d="M467.348,287.667h-23.38c-2.036,0-3.674,2.614-3.639,4.65l0.169,9.662
			c0.036,2.036,1.732,2.724,3.767,2.724h0.257l3.279,5.417l2.98-5.417h16.864c2.036,0,3.309-0.688,3.273-2.724l-0.169-9.662
			C470.714,290.282,469.383,287.667,467.348,287.667z M449.711,298.991c-1.018,0-1.857-0.825-1.875-1.844
			c-0.018-1.018,0.793-1.843,1.811-1.843c1.018,0,1.857,0.825,1.875,1.843C451.539,298.166,450.729,298.991,449.711,298.991z
			 M455.855,298.991c-1.018,0-1.858-0.825-1.876-1.844c-0.018-1.018,0.793-1.843,1.811-1.843c1.017,0,1.857,0.825,1.875,1.843
			C457.683,298.166,456.873,298.991,455.855,298.991z M462,298.991c-1.019,0-1.858-0.825-1.876-1.844
			c-0.018-1.018,0.792-1.843,1.811-1.843c1.017,0,1.857,0.825,1.875,1.843C463.828,298.166,463.017,298.991,462,298.991z"/>
		<g>
			<path style="fill:#C7DEFE;" d="M474.93,313.709h23.38c2.036,0,3.766,2.614,3.801,4.65l0.169,9.662
				c0.036,2.036-1.637,2.724-3.672,2.724h-0.257l-3.089,5.417l-3.169-5.417h-16.864c-2.036,0-3.333-0.688-3.368-2.724l-0.169-9.662
				C471.655,316.324,472.895,313.709,474.93,313.709z M492.962,325.033c1.018,0,1.829-0.825,1.811-1.844
				c-0.018-1.018-0.857-1.843-1.875-1.843c-1.018,0-1.829,0.825-1.811,1.843C491.105,324.208,491.945,325.033,492.962,325.033z
				 M486.818,325.033c1.018,0,1.829-0.825,1.811-1.844c-0.018-1.018-0.857-1.843-1.876-1.843c-1.017,0-1.828,0.825-1.81,1.843
				C484.961,324.208,485.8,325.033,486.818,325.033z M480.673,325.033c1.019,0,1.829-0.825,1.811-1.844
				c-0.018-1.018-0.857-1.843-1.876-1.843c-1.017,0-1.828,0.825-1.81,1.843C478.816,324.208,479.656,325.033,480.673,325.033z"/>
		</g>
	</g>
	<g>
		<path style="fill:#C7DEFE;" d="M529.687,137.541c0.297,17.023-6.958,32.292-18.678,42.661
			c-9.784,8.658-22.68,13.901-36.895,13.901c-31.238,0-57.003-25.324-57.548-56.562c-0.259-14.865,5.239-28.391,14.442-38.486
			c10.133-11.118,24.76-18.074,41.132-18.074C503.376,80.981,529.142,106.305,529.687,137.541z"/>
		<g>
			<g>
				<path style="fill:#2946FB;" d="M509.021,145.389c-0.003,0.036,0.357,0.915,0.701,1.744c0.394,0.949,0.521,2.108,0.359,3.273
					l-1.145,8.131c-0.186,1.339,0.454,2.482,1.392,2.486l0,0c0.815,0.004,1.579-0.862,1.784-2.019l2.547-13.588L509.021,145.389z"/>
				<g style="opacity:0.2;">
					<path style="fill:#D92150;" d="M509.472,146.528c-0.249-0.604-0.454-1.112-0.451-1.139l5.637,0.027l-2.547,13.588
						c-0.173,0.983-0.752,1.749-1.421,1.957c0.853-3.643,0.99-7.999,1.492-11.186C512.835,146.85,510.874,147.255,509.472,146.528z"
						/>
				</g>
				<path style="fill:#FFFFFF;" d="M466.333,156.562c0,0,13.783-11.063,37.284-6.465l2.151-12.025
					c-23.502-4.598-32.529-20.123-32.529-20.123L466.333,156.562z"/>
				<g style="opacity:0.2;">
					<path style="fill:#4A0659;" d="M468.303,145.549c11.258,3.146,21.52,0.613,33.337-1.235c1.022-0.181,2.051-0.302,3.079-0.376
						l-1.102,6.16c-23.501-4.598-37.284,6.465-37.284,6.465L468.303,145.549z"/>
				</g>
				<path style="fill:#2946FB;" d="M473.24,117.949c-4.357-0.852-9.435,7.101-11.342,17.763c-1.907,10.663,0.079,19.998,4.436,20.85
					c4.357,0.852,9.435-7.101,11.342-17.763C479.583,128.136,477.597,118.801,473.24,117.949z"/>
				<path style="fill:#1A2982;" d="M473.051,119.006c-3.703-0.724-8.151,6.781-9.937,16.763c-1.785,9.982-0.231,18.662,3.471,19.386
					c3.703,0.724,8.151-6.781,9.937-16.763C478.307,128.41,476.753,119.731,473.051,119.006z"/>
				<g style="opacity:0.2;">
					<path style="fill:#4A0659;" d="M476.848,125.25c-0.186-0.106-0.38-0.184-0.584-0.224c-2.636-0.516-5.803,4.827-7.073,11.933
						c-1.271,7.106-0.165,13.284,2.471,13.8c0.204,0.04,0.412,0.041,0.622,0.012c1.793-3.033,3.348-7.397,4.238-12.378
						C477.413,133.412,477.472,128.756,476.848,125.25z"/>
				</g>
				<path style="fill:#003E61;" d="M511.91,139.204l-8.165-1.597l0.054,0.436c0.468,3.799-0.183,7.615-1.877,11.008l-0.348,0.696
					l8.165,1.597c2.617,0.512,5.102-1.109,5.551-3.62l0.545-3.045C516.283,142.167,514.526,139.716,511.91,139.204z"/>
				<path style="fill:#8FC0FA;" d="M501.572,149.745l2.716,0.533l2.072,0.406l3.381,0.661c2.613,0.511,5.1-1.108,5.55-3.621
					l0.542-3.047c0.452-2.509-1.309-4.962-3.922-5.473l-3.729-0.731l-1.872-0.365l-2.567-0.5l0.056,0.434
					c0.465,3.797-0.183,7.616-1.879,11.009L501.572,149.745z"/>
				<path style="fill:#2946FB;" d="M504.288,150.278l2.072,0.406c1.53-3.865,2.153-8.03,1.821-12.211l-1.872-0.365
					C506.575,142.287,505.882,146.441,504.288,150.278z"/>
				<path style="fill:#D30F00;" d="M468.057,136.737c-0.265,1.482,0.479,3.01,1.882,3.862l5.287,3.214
					c0.513-1.69,0.954-3.509,1.295-5.421c0.342-1.912,0.56-3.775,0.666-5.544l-6.041,0.998
					C469.544,134.112,468.322,135.254,468.057,136.737z"/>
				<path style="fill:#FFFFFF;" d="M470.323,137.18c-0.24,1.342-0.942,2.33-1.568,2.208c-0.626-0.122-0.939-1.309-0.699-2.651
					c0.24-1.342,0.942-2.331,1.568-2.208C470.251,134.651,470.563,135.838,470.323,137.18z"/>
				<g style="opacity:0.2;">
					<path style="fill:#003E61;" d="M501.921,149.051c0.789-1.579,1.341-3.251,1.67-4.97c3.742-0.365,8.326,0.33,12.307-0.165
						c-0.002,0.252-0.019,0.506-0.065,0.761l-0.542,3.047c-0.45,2.513-2.936,4.132-5.55,3.621l-3.381-0.661l-2.072-0.406
						l-2.716-0.533L501.921,149.051z"/>
				</g>
			</g>
		</g>
		
			<line style="fill:none;stroke:#20288A;stroke-width:8;stroke-miterlimit:10;" x1="441.544" y1="111.651" x2="461.642" y2="124.621"/>
		
			<line style="fill:none;stroke:#20288A;stroke-width:8;stroke-miterlimit:10;" x1="458.602" y1="134.277" x2="432.949" y2="129.181"/>
		
			<line style="fill:none;stroke:#20288A;stroke-width:8;stroke-miterlimit:10;" x1="457.976" y1="144.776" x2="433.459" y2="147.206"/>
		
			<line style="fill:none;stroke:#20288A;stroke-width:8;stroke-miterlimit:10;" x1="458.785" y1="152.821" x2="440.039" y2="159.825"/>
		<g style="opacity:0.28;">
			<path style="fill:#8FC0FA;" d="M474.114,194.104c-31.238,0-57.003-25.324-57.548-56.562
				c-0.259-14.865,5.239-28.391,14.442-38.486c2.694,46.015,53.279,71.071,80.001,81.147
				C501.225,188.86,488.329,194.104,474.114,194.104z"/>
		</g>
	</g>
</g>
</svg>
